1,0,Header,0,11,384
1,0,Start_track,0,0,0
1,0,Tempo,333333,0,0
1,0,MIDI_port,0,0,0
1,0, Program_c,0,5,0
1,0, Control_c,0,5,100
1,0, Control_c,0,5,0
1,0, End_track,0,0,0
2,0, Start_track,1,0,0
2, 0, MIDI_port, 0
2,0, Program_c,1,5,0
2,0, Control_c,1,5,100
2,0, Control_c,1,5,0
2,0,Note_on_C,1,57,70
2,96,Note_on_C,1,57,0
2,96,Note_on_C,1,65,70
2,184,Note_on_C,1,65,0
2,184,Note_on_C,1,57,70
2,272,Note_on_C,1,57,0
2,272,Note_on_C,1,65,70
2,360,Note_on_C,1,65,0
2,360,Note_on_C,1,57,70
2,448,Note_on_C,1,57,0
2,448,Note_on_C,1,65,70
2,536,Note_on_C,1,65,0
2,536,Note_on_C,1,57,70
2,624,Note_on_C,1,57,0
2,624,Note_on_C,1,60,70
2,725,Note_on_C,1,60,0
2,725,Note_on_C,1,63,70
2,826,Note_on_C,1,63,0
2,826,Note_on_C,1,58,70
2,927,Note_on_C,1,58,0
2,927,Note_on_C,1,60,70
2,1028,Note_on_C,1,60,0
2,1028,Note_on_C,1,62,70
2,1129,Note_on_C,1,62,0
2,1129,Note_on_C,1,59,70
2,1230,Note_on_C,1,59,0
2,1230,Note_on_C,1,61,70
2,1331,Note_on_C,1,61,0
2,1331,Note_on_C,1,61,70
2,1432,Note_on_C,1,61,0
2,1432,Note_on_C,1,60,70
2,1533,Note_on_C,1,60,0
2,1533,Note_on_C,1,61,70
2,1634,Note_on_C,1,61,0
2,1634,Note_on_C,1,61,70
2,1735,Note_on_C,1,61,0
2,1735,Note_on_C,1,61,70
2,1836,Note_on_C,1,61,0
2,1836,Note_on_C,1,61,70
2,1937,Note_on_C,1,61,0
2,1937,Note_on_C,1,61,70
2,2038,Note_on_C,1,61,0
2,2038,Note_on_C,1,61,70
2,2139,Note_on_C,1,61,0
2,2139,Note_on_C,1,61,70
2,2240,Note_on_C,1,61,0
2,2240,Note_on_C,1,61,70
2,2341,Note_on_C,1,61,0
2,2341,Note_on_C,1,61,70
2,2442,Note_on_C,1,61,0
2,2442,Note_on_C,1,61,70
2,2543,Note_on_C,1,61,0
2,2543,Note_on_C,1,61,70
2,2644,Note_on_C,1,61,0
2,2644,Note_on_C,1,61,70
2,2745,Note_on_C,1,61,0
2,2745,Note_on_C,1,61,70
2,2846,Note_on_C,1,61,0
2,2846,Note_on_C,1,61,70
2,2947,Note_on_C,1,61,0
2,2947,Note_on_C,1,61,70
2,3048,Note_on_C,1,61,0
2,3048,Note_on_C,1,62,70
2,3149,Note_on_C,1,62,0
2,3149,Note_on_C,1,62,70
2,3250,Note_on_C,1,62,0
2,3250,Note_on_C,1,62,70
2,3351,Note_on_C,1,62,0
2,3351,Note_on_C,1,62,70
2,3452,Note_on_C,1,62,0
2,3452,Note_on_C,1,62,70
2,3553,Note_on_C,1,62,0
2,3553,Note_on_C,1,62,70
2,3654,Note_on_C,1,62,0
2,3654,Note_on_C,1,62,70
2,3755,Note_on_C,1,62,0
2,3755,Note_on_C,1,62,70
2,3856,Note_on_C,1,62,0
2,3856,Note_on_C,1,62,70
2,3957,Note_on_C,1,62,0
2,3957,Note_on_C,1,62,70
2,4058,Note_on_C,1,62,0
2,4058,Note_on_C,1,62,70
2,4159,Note_on_C,1,62,0
2,4159,Note_on_C,1,62,70
2,4260,Note_on_C,1,62,0
2,4260,Note_on_C,1,62,70
2,4361,Note_on_C,1,62,0
2,4361,Note_on_C,1,62,70
2,4462,Note_on_C,1,62,0
2,4462,Note_on_C,1,62,70
2,4563,Note_on_C,1,62,0
2,4563,Note_on_C,1,62,70
2,4664,Note_on_C,1,62,0
2,4664,Note_on_C,1,62,70
2,4765,Note_on_C,1,62,0
2,4765,Note_on_C,1,62,70
2,4866,Note_on_C,1,62,0
2,4866,Note_on_C,1,62,70
2,4967,Note_on_C,1,62,0
2,4967,Note_on_C,1,62,70
2,5068,Note_on_C,1,62,0
2,5068,Note_on_C,1,62,70
2,5169,Note_on_C,1,62,0
2,5169,Note_on_C,1,62,70
2,5270,Note_on_C,1,62,0
2,5270,Note_on_C,1,62,70
2,5371,Note_on_C,1,62,0
2,5371,Note_on_C,1,62,70
2,5472,Note_on_C,1,62,0
2,5472,Note_on_C,1,62,70
2,5573,Note_on_C,1,62,0
2,5573,Note_on_C,1,62,70
2,5674,Note_on_C,1,62,0
2,5674,Note_on_C,1,62,70
2,5775,Note_on_C,1,62,0
2,5775,Note_on_C,1,62,70
2,5876,Note_on_C,1,62,0
2,5876,Note_on_C,1,62,70
2,5977,Note_on_C,1,62,0
2,5977,Note_on_C,1,62,70
2,6078,Note_on_C,1,62,0
2,6078,Note_on_C,1,62,70
2,6179,Note_on_C,1,62,0
2,6179,Note_on_C,1,62,70
2,6280,Note_on_C,1,62,0
2,6280,Note_on_C,1,62,70
2,6381,Note_on_C,1,62,0
2,6381,Note_on_C,1,62,70
2,6482,Note_on_C,1,62,0
2,6482,Note_on_C,1,62,70
2,6583,Note_on_C,1,62,0
2,6583,Note_on_C,1,62,70
2,6684,Note_on_C,1,62,0
2,6684,Note_on_C,1,62,70
2,6785,Note_on_C,1,62,0
2,6785,Note_on_C,1,62,70
2,6886,Note_on_C,1,62,0
2,6886,Note_on_C,1,62,70
2,6987,Note_on_C,1,62,0
2,6987,Note_on_C,1,62,70
2,7088,Note_on_C,1,62,0
2,7088,Note_on_C,1,62,70
2,7189,Note_on_C,1,62,0
2,7189,Note_on_C,1,62,70
2,7290,Note_on_C,1,62,0
2,7290,Note_on_C,1,62,70
2,7391,Note_on_C,1,62,0
2,7391,Note_on_C,1,62,70
2,7492,Note_on_C,1,62,0
2,7492,Note_on_C,1,62,70
2,7593,Note_on_C,1,62,0
2,7593,Note_on_C,1,62,70
2,7694,Note_on_C,1,62,0
2,7694,Note_on_C,1,62,70
2,7795,Note_on_C,1,62,0
2,7795,Note_on_C,1,62,70
2,7896,Note_on_C,1,62,0
2,7896,Note_on_C,1,62,70
2,7997,Note_on_C,1,62,0
2,7997,Note_on_C,1,62,70
2,8098,Note_on_C,1,62,0
2,8098,Note_on_C,1,62,70
2,8199,Note_on_C,1,62,0
2,8199,Note_on_C,1,62,70
2,8300,Note_on_C,1,62,0
2,8300,Note_on_C,1,62,70
2,8401,Note_on_C,1,62,0
2,8401,Note_on_C,1,62,70
2,8502,Note_on_C,1,62,0
2,8502,Note_on_C,1,62,70
2,8603,Note_on_C,1,62,0
2,8603,Note_on_C,1,62,70
2,8704,Note_on_C,1,62,0
2,8704,Note_on_C,1,62,70
2,8805,Note_on_C,1,62,0
2,8805,Note_on_C,1,62,70
2,8906,Note_on_C,1,62,0
2,8906,Note_on_C,1,62,70
2,9007,Note_on_C,1,62,0
2,9007,Note_on_C,1,62,70
2,9108,Note_on_C,1,62,0
2,9108,Note_on_C,1,62,70
2,9209,Note_on_C,1,62,0
2,9209,Note_on_C,1,62,70
2,9310,Note_on_C,1,62,0
2,9310,Note_on_C,1,62,70
2,9411,Note_on_C,1,62,0
2,9411,Note_on_C,1,62,70
2,9512,Note_on_C,1,62,0
2,9512,Note_on_C,1,62,70
2,9613,Note_on_C,1,62,0
2,9613,Note_on_C,1,62,70
2,9714,Note_on_C,1,62,0
2,9714,Note_on_C,1,62,70
2,9815,Note_on_C,1,62,0
2,9815,Note_on_C,1,62,70
2,9916,Note_on_C,1,62,0
2,9916,Note_on_C,1,62,70
2,10017,Note_on_C,1,62,0
2,10017,Note_on_C,1,62,70
2,10118,Note_on_C,1,62,0
2,10118,Note_on_C,1,62,70
2,10219,Note_on_C,1,62,0
2,10219,Note_on_C,1,62,70
2,10320,Note_on_C,1,62,0
2,10320,Note_on_C,1,62,70
2,10421,Note_on_C,1,62,0
2,10421,Note_on_C,1,62,70
2,10522,Note_on_C,1,62,0
2,10522,Note_on_C,1,62,70
2,10623,Note_on_C,1,62,0
2,10623,Note_on_C,1,62,70
2,10724,Note_on_C,1,62,0
2,10724,Note_on_C,1,62,70
2,10825,Note_on_C,1,62,0
2,10825,Note_on_C,1,62,70
2,10926,Note_on_C,1,62,0
2,10926,Note_on_C,1,62,70
2,11027,Note_on_C,1,62,0
2,11027,Note_on_C,1,62,70
2,11128,Note_on_C,1,62,0
2,11128,Note_on_C,1,62,70
2,11229,Note_on_C,1,62,0
2,11229,Note_on_C,1,62,70
2,11330,Note_on_C,1,62,0
2,11330,Note_on_C,1,62,70
2,11431,Note_on_C,1,62,0
2,11431,Note_on_C,1,62,70
2,11532,Note_on_C,1,62,0
2,11532,Note_on_C,1,62,70
2,11633,Note_on_C,1,62,0
2,11633,Note_on_C,1,62,70
2,11734,Note_on_C,1,62,0
2,11734,Note_on_C,1,62,70
2,11835,Note_on_C,1,62,0
2,11835,Note_on_C,1,62,70
2,11936,Note_on_C,1,62,0
2,11936,Note_on_C,1,62,70
2,12037,Note_on_C,1,62,0
2,12037,Note_on_C,1,62,70
2,12138,Note_on_C,1,62,0
2,12138,Note_on_C,1,62,70
2,12239,Note_on_C,1,62,0
2,12239,Note_on_C,1,62,70
2,12340,Note_on_C,1,62,0
2,12340,Note_on_C,1,62,70
2,12441,Note_on_C,1,62,0
2,12441,Note_on_C,1,62,70
2,12542,Note_on_C,1,62,0
2,12542,Note_on_C,1,62,70
2,12643,Note_on_C,1,62,0
2,12643,Note_on_C,1,62,70
2,12744,Note_on_C,1,62,0
2,12744,Note_on_C,1,62,70
2,12845,Note_on_C,1,62,0
2,12845,Note_on_C,1,62,70
2,12946,Note_on_C,1,62,0
2,12946,Note_on_C,1,62,70
2,13047,Note_on_C,1,62,0
2,13047,Note_on_C,1,62,70
2,13148,Note_on_C,1,62,0
2,13148,Note_on_C,1,62,70
2,13249,Note_on_C,1,62,0
2,13249,Note_on_C,1,62,70
2,13350,Note_on_C,1,62,0
2,13350,Note_on_C,1,62,70
2,13451,Note_on_C,1,62,0
2,13451,Note_on_C,1,62,70
2,13552,Note_on_C,1,62,0
2,13552,Note_on_C,1,62,70
2,13653,Note_on_C,1,62,0
2,13653,Note_on_C,1,62,70
2,13754,Note_on_C,1,62,0
2,13754,Note_on_C,1,62,70
2,13855,Note_on_C,1,62,0
2,13855,Note_on_C,1,62,70
2,13956,Note_on_C,1,62,0
2,13956,Note_on_C,1,62,70
2,14057,Note_on_C,1,62,0
2,14057,Note_on_C,1,62,70
2,14158,Note_on_C,1,62,0
2,14158,Note_on_C,1,62,70
2,14259,Note_on_C,1,62,0
2,14259,Note_on_C,1,62,70
2,14360,Note_on_C,1,62,0
2,14360,Note_on_C,1,62,70
2,14461,Note_on_C,1,62,0
2,14461,Note_on_C,1,62,70
2,14562,Note_on_C,1,62,0
2,14562,Note_on_C,1,62,70
2,14663,Note_on_C,1,62,0
2,14663,Note_on_C,1,62,70
2,14764,Note_on_C,1,62,0
2,14764,Note_on_C,1,62,70
2,14865,Note_on_C,1,62,0
2,14865,Note_on_C,1,62,70
2,14966,Note_on_C,1,62,0
2,14966,Note_on_C,1,62,70
2,15067,Note_on_C,1,62,0
2,15067,Note_on_C,1,62,70
2,15168,Note_on_C,1,62,0
2,15168,Note_on_C,1,62,70
2,15269,Note_on_C,1,62,0
2,15269,Note_on_C,1,62,70
2,15370,Note_on_C,1,62,0
2,15370,Note_on_C,1,62,70
2,15471,Note_on_C,1,62,0
2,15471,Note_on_C,1,62,70
2,15572,Note_on_C,1,62,0
2,15572,Note_on_C,1,62,70
2,15673,Note_on_C,1,62,0
2,15673,Note_on_C,1,62,70
2,15774,Note_on_C,1,62,0
2,15774,Note_on_C,1,62,70
2,15875,Note_on_C,1,62,0
2,15875,Note_on_C,1,62,70
2,15976,Note_on_C,1,62,0
2,15976,Note_on_C,1,62,70
2,16077,Note_on_C,1,62,0
2,16077,Note_on_C,1,62,70
2,16178,Note_on_C,1,62,0
2,16178,Note_on_C,1,62,70
2,16279,Note_on_C,1,62,0
2,16279,Note_on_C,1,62,70
2,16380,Note_on_C,1,62,0
2,16380,Note_on_C,1,62,70
2,16481,Note_on_C,1,62,0
2,16481,Note_on_C,1,62,70
2,16582,Note_on_C,1,62,0
2,16582,Note_on_C,1,62,70
2,16683,Note_on_C,1,62,0
2,16683,Note_on_C,1,62,70
2,16784,Note_on_C,1,62,0
2,16784,Note_on_C,1,62,70
2,16885,Note_on_C,1,62,0
2,16885,Note_on_C,1,62,70
2,16986,Note_on_C,1,62,0
2,16986,Note_on_C,1,62,70
2,17087,Note_on_C,1,62,0
2,17087,Note_on_C,1,62,70
2,17188,Note_on_C,1,62,0
2,17188,Note_on_C,1,62,70
2,17289,Note_on_C,1,62,0
2,17289,Note_on_C,1,62,70
2,17390,Note_on_C,1,62,0
2,17390,Note_on_C,1,62,70
2,17491,Note_on_C,1,62,0
2,17491,Note_on_C,1,62,70
2,17592,Note_on_C,1,62,0
2,17592,Note_on_C,1,62,70
2,17693,Note_on_C,1,62,0
2,17693,Note_on_C,1,62,70
2,17794,Note_on_C,1,62,0
2,17794,Note_on_C,1,62,70
2,17895,Note_on_C,1,62,0
2,17895,Note_on_C,1,62,70
2,17996,Note_on_C,1,62,0
2,17996,Note_on_C,1,62,70
2,18097,Note_on_C,1,62,0
2,18097,Note_on_C,1,62,70
2,18198,Note_on_C,1,62,0
2,18198,Note_on_C,1,62,70
2,18299,Note_on_C,1,62,0
2,18299,Note_on_C,1,62,70
2,18400,Note_on_C,1,62,0
2,18400,Note_on_C,1,62,70
2,18501,Note_on_C,1,62,0
2,18501,Note_on_C,1,62,70
2,18602,Note_on_C,1,62,0
2,18602,Note_on_C,1,62,70
2,18703,Note_on_C,1,62,0
2,18703,Note_on_C,1,62,70
2,18804,Note_on_C,1,62,0
2,18804,Note_on_C,1,62,70
2,18905,Note_on_C,1,62,0
2,18905,Note_on_C,1,62,70
2,19006,Note_on_C,1,62,0
2,19006,Note_on_C,1,62,70
2,19107,Note_on_C,1,62,0
2,19107,Note_on_C,1,62,70
2,19208,Note_on_C,1,62,0
2,19208,Note_on_C,1,62,70
2,19309,Note_on_C,1,62,0
2,19309,Note_on_C,1,62,70
2,19410,Note_on_C,1,62,0
2,19410,Note_on_C,1,62,70
2,19511,Note_on_C,1,62,0
2,19511,Note_on_C,1,62,70
2,19612,Note_on_C,1,62,0
2,19612,Note_on_C,1,62,70
2,19713,Note_on_C,1,62,0
2,19713,Note_on_C,1,62,70
2,19814,Note_on_C,1,62,0
2,19814,Note_on_C,1,62,70
2,19915,Note_on_C,1,62,0
2,19915,Note_on_C,1,62,70
2,20016,Note_on_C,1,62,0
2,20016, End_track,1,0,0
3,0, Start_track,2,0,0
3, 0, MIDI_port, 0
3,0, Program_c,2,5,0
3,0, Control_c,2,5,100
3,0, Control_c,2,5,0
3,0,Note_on_C,2,50,78
3,376,Note_on_C,2,50,0
3,376,Note_on_C,2,48,78
3,1904,Note_on_C,2,48,0
3,1904,Note_on_C,2,36,78
3,2920,Note_on_C,2,36,0
3,2920,Note_on_C,2,38,78
3,3168,Note_on_C,2,38,0
3,3168,Note_on_C,2,39,78
3,3416,Note_on_C,2,39,0
3,3416,Note_on_C,2,40,78
3,4944,Note_on_C,2,40,0
3,4944,Note_on_C,2,41,78
3,6472,Note_on_C,2,41,0
3,6472,Note_on_C,2,39,78
3,7114,Note_on_C,2,39,0
3,7114,Note_on_C,2,40,78
3,7756,Note_on_C,2,40,0
3,7756,Note_on_C,2,40,78
3,8398,Note_on_C,2,40,0
3,8398,Note_on_C,2,39,78
3,9040,Note_on_C,2,39,0
3,9040,Note_on_C,2,40,78
3,9682,Note_on_C,2,40,0
3,9682,Note_on_C,2,40,78
3,10324,Note_on_C,2,40,0
3,10324,Note_on_C,2,40,78
3,10966,Note_on_C,2,40,0
3,10966,Note_on_C,2,40,78
3,11608,Note_on_C,2,40,0
3,11608,Note_on_C,2,40,78
3,12250,Note_on_C,2,40,0
3,12250,Note_on_C,2,39,78
3,12892,Note_on_C,2,39,0
3,12892,Note_on_C,2,40,78
3,13534,Note_on_C,2,40,0
3,13534,Note_on_C,2,40,78
3,14176,Note_on_C,2,40,0
3,14176,Note_on_C,2,39,78
3,14818,Note_on_C,2,39,0
3,14818,Note_on_C,2,39,78
3,15460,Note_on_C,2,39,0
3,15460, End_track,2,0,0
4,0, Start_track,3,0,0
4, 0, MIDI_port, 0
4,0, Program_c,3,5,0
4,0, Control_c,3,5,100
4,0, Control_c,3,5,0
4,0,Note_on_C,3,43,62
4,376,Note_on_C,3,43,0
4,376,Note_on_C,3,44,62
4,1136,Note_on_C,3,44,0
4,1136,Note_on_C,3,45,62
4,1896,Note_on_C,3,45,0
4,1896,Note_on_C,3,45,62
4,2272,Note_on_C,3,45,0
4,2272,Note_on_C,3,40,62
4,3032,Note_on_C,3,40,0
4,3032,Note_on_C,3,41,62
4,3792,Note_on_C,3,41,0
4,3792,Note_on_C,3,42,62
4,4744,Note_on_C,3,42,0
4,4744,Note_on_C,3,41,62
4,5099,Note_on_C,3,41,0
4,5099,Note_on_C,3,42,62
4,5454,Note_on_C,3,42,0
4,5454,Note_on_C,3,42,62
4,5809,Note_on_C,3,42,0
4,5809,Note_on_C,3,42,62
4,6164,Note_on_C,3,42,0
4,6164,Note_on_C,3,42,62
4,6519,Note_on_C,3,42,0
4,6519,Note_on_C,3,42,62
4,6874,Note_on_C,3,42,0
4,6874,Note_on_C,3,42,62
4,7229,Note_on_C,3,42,0
4,7229,Note_on_C,3,42,62
4,7584,Note_on_C,3,42,0
4,7584,Note_on_C,3,42,62
4,7939,Note_on_C,3,42,0
4,7939,Note_on_C,3,42,62
4,8294,Note_on_C,3,42,0
4,8294,Note_on_C,3,43,62
4,8649,Note_on_C,3,43,0
4,8649,Note_on_C,3,43,62
4,9004,Note_on_C,3,43,0
4,9004,Note_on_C,3,43,62
4,9359,Note_on_C,3,43,0
4,9359,Note_on_C,3,43,62
4,9714,Note_on_C,3,43,0
4,9714,Note_on_C,3,43,62
4,10069,Note_on_C,3,43,0
4,10069,Note_on_C,3,43,62
4,10424,Note_on_C,3,43,0
4,10424,Note_on_C,3,43,62
4,10779,Note_on_C,3,43,0
4,10779,Note_on_C,3,43,62
4,11134,Note_on_C,3,43,0
4,11134,Note_on_C,3,43,62
4,11489,Note_on_C,3,43,0
4,11489,Note_on_C,3,43,62
4,11844,Note_on_C,3,43,0
4,11844,Note_on_C,3,43,62
4,12199,Note_on_C,3,43,0
4,12199,Note_on_C,3,43,62
4,12554,Note_on_C,3,43,0
4,12554,Note_on_C,3,43,62
4,12909,Note_on_C,3,43,0
4,12909,Note_on_C,3,43,62
4,13264,Note_on_C,3,43,0
4,13264,Note_on_C,3,43,62
4,13619,Note_on_C,3,43,0
4,13619,Note_on_C,3,43,62
4,13974,Note_on_C,3,43,0
4,13974,Note_on_C,3,43,62
4,14329,Note_on_C,3,43,0
4,14329,Note_on_C,3,43,62
4,14684,Note_on_C,3,43,0
4,14684,Note_on_C,3,43,62
4,15039,Note_on_C,3,43,0
4,15039,Note_on_C,3,43,62
4,15394,Note_on_C,3,43,0
4,15394,Note_on_C,3,43,62
4,15749,Note_on_C,3,43,0
4,15749,Note_on_C,3,43,62
4,16104,Note_on_C,3,43,0
4,16104,Note_on_C,3,43,62
4,16459,Note_on_C,3,43,0
4,16459,Note_on_C,3,43,62
4,16814,Note_on_C,3,43,0
4,16814,Note_on_C,3,43,62
4,17169,Note_on_C,3,43,0
4,17169,Note_on_C,3,43,62
4,17524,Note_on_C,3,43,0
4,17524,Note_on_C,3,43,62
4,17879,Note_on_C,3,43,0
4,17879,Note_on_C,3,43,62
4,18234,Note_on_C,3,43,0
4,18234,Note_on_C,3,43,62
4,18589,Note_on_C,3,43,0
4,18589,Note_on_C,3,43,62
4,18944,Note_on_C,3,43,0
4,18944,Note_on_C,3,43,62
4,19299,Note_on_C,3,43,0
4,19299,Note_on_C,3,43,62
4,19654,Note_on_C,3,43,0
4,19654,Note_on_C,3,43,62
4,20009,Note_on_C,3,43,0
4,20009,Note_on_C,3,43,62
4,20364,Note_on_C,3,43,0
4,20364,Note_on_C,3,43,62
4,20719,Note_on_C,3,43,0
4,20719,Note_on_C,3,43,62
4,21074,Note_on_C,3,43,0
4,21074,Note_on_C,3,43,62
4,21429,Note_on_C,3,43,0
4,21429,Note_on_C,3,43,62
4,21784,Note_on_C,3,43,0
4,21784,Note_on_C,3,43,62
4,22139,Note_on_C,3,43,0
4,22139,Note_on_C,3,43,62
4,22494,Note_on_C,3,43,0
4,22494,Note_on_C,3,43,62
4,22849,Note_on_C,3,43,0
4,22849,Note_on_C,3,43,62
4,23204,Note_on_C,3,43,0
4,23204,Note_on_C,3,43,62
4,23559,Note_on_C,3,43,0
4,23559,Note_on_C,3,43,62
4,23914,Note_on_C,3,43,0
4,23914,Note_on_C,3,43,62
4,24269,Note_on_C,3,43,0
4,24269,Note_on_C,3,43,62
4,24624,Note_on_C,3,43,0
4,24624,Note_on_C,3,43,62
4,24979,Note_on_C,3,43,0
4,24979,Note_on_C,3,43,62
4,25334,Note_on_C,3,43,0
4,25334,Note_on_C,3,43,62
4,25689,Note_on_C,3,43,0
4,25689,Note_on_C,3,43,62
4,26044,Note_on_C,3,43,0
4,26044,Note_on_C,3,43,62
4,26399,Note_on_C,3,43,0
4,26399,Note_on_C,3,43,62
4,26754,Note_on_C,3,43,0
4,26754,Note_on_C,3,43,62
4,27109,Note_on_C,3,43,0
4,27109,Note_on_C,3,43,62
4,27464,Note_on_C,3,43,0
4,27464,Note_on_C,3,43,62
4,27819,Note_on_C,3,43,0
4,27819,Note_on_C,3,43,62
4,28174,Note_on_C,3,43,0
4,28174,Note_on_C,3,43,62
4,28529,Note_on_C,3,43,0
4,28529,Note_on_C,3,43,62
4,28884,Note_on_C,3,43,0
4,28884,Note_on_C,3,43,62
4,29239,Note_on_C,3,43,0
4,29239,Note_on_C,3,43,62
4,29594,Note_on_C,3,43,0
4,29594,Note_on_C,3,43,62
4,29949,Note_on_C,3,43,0
4,29949,Note_on_C,3,43,62
4,30304,Note_on_C,3,43,0
4,30304,Note_on_C,3,43,62
4,30659,Note_on_C,3,43,0
4,30659,Note_on_C,3,43,62
4,31014,Note_on_C,3,43,0
4,31014,Note_on_C,3,43,62
4,31369,Note_on_C,3,43,0
4,31369,Note_on_C,3,43,62
4,31724,Note_on_C,3,43,0
4,31724,Note_on_C,3,43,62
4,32079,Note_on_C,3,43,0
4,32079,Note_on_C,3,43,62
4,32434,Note_on_C,3,43,0
4,32434,Note_on_C,3,43,62
4,32789,Note_on_C,3,43,0
4,32789,Note_on_C,3,43,62
4,33144,Note_on_C,3,43,0
4,33144,Note_on_C,3,43,62
4,33499,Note_on_C,3,43,0
4,33499,Note_on_C,3,43,62
4,33854,Note_on_C,3,43,0
4,33854,Note_on_C,3,43,62
4,34209,Note_on_C,3,43,0
4,34209,Note_on_C,3,43,62
4,34564,Note_on_C,3,43,0
4,34564,Note_on_C,3,43,62
4,34919,Note_on_C,3,43,0
4,34919,Note_on_C,3,43,62
4,35274,Note_on_C,3,43,0
4,35274,Note_on_C,3,43,62
4,35629,Note_on_C,3,43,0
4,35629,Note_on_C,3,43,62
4,35984,Note_on_C,3,43,0
4,35984,Note_on_C,3,43,62
4,36339,Note_on_C,3,43,0
4,36339,Note_on_C,3,43,62
4,36694,Note_on_C,3,43,0
4,36694,Note_on_C,3,43,62
4,37049,Note_on_C,3,43,0
4,37049,Note_on_C,3,43,62
4,37404,Note_on_C,3,43,0
4,37404,Note_on_C,3,43,62
4,37759,Note_on_C,3,43,0
4,37759,Note_on_C,3,43,62
4,38114,Note_on_C,3,43,0
4,38114,Note_on_C,3,43,62
4,38469,Note_on_C,3,43,0
4,38469,Note_on_C,3,43,62
4,38824,Note_on_C,3,43,0
4,38824,Note_on_C,3,43,62
4,39179,Note_on_C,3,43,0
4,39179,Note_on_C,3,43,62
4,39534,Note_on_C,3,43,0
4,39534,Note_on_C,3,43,62
4,39889,Note_on_C,3,43,0
4,39889,Note_on_C,3,43,62
4,40244,Note_on_C,3,43,0
4,40244,Note_on_C,3,43,62
4,40599,Note_on_C,3,43,0
4,40599,Note_on_C,3,43,62
4,40954,Note_on_C,3,43,0
4,40954,Note_on_C,3,43,62
4,41309,Note_on_C,3,43,0
4,41309,Note_on_C,3,43,62
4,41664,Note_on_C,3,43,0
4,41664,Note_on_C,3,43,62
4,42019,Note_on_C,3,43,0
4,42019,Note_on_C,3,43,62
4,42374,Note_on_C,3,43,0
4,42374,Note_on_C,3,43,62
4,42729,Note_on_C,3,43,0
4,42729,Note_on_C,3,43,62
4,43084,Note_on_C,3,43,0
4,43084,Note_on_C,3,43,62
4,43439,Note_on_C,3,43,0
4,43439,Note_on_C,3,43,62
4,43794,Note_on_C,3,43,0
4,43794,Note_on_C,3,43,62
4,44149,Note_on_C,3,43,0
4,44149,Note_on_C,3,43,62
4,44504,Note_on_C,3,43,0
4,44504,Note_on_C,3,43,62
4,44859,Note_on_C,3,43,0
4,44859,Note_on_C,3,43,62
4,45214,Note_on_C,3,43,0
4,45214,Note_on_C,3,43,62
4,45569,Note_on_C,3,43,0
4,45569,Note_on_C,3,43,62
4,45924,Note_on_C,3,43,0
4,45924,Note_on_C,3,43,62
4,46279,Note_on_C,3,43,0
4,46279,Note_on_C,3,43,62
4,46634,Note_on_C,3,43,0
4,46634,Note_on_C,3,43,62
4,46989,Note_on_C,3,43,0
4,46989,Note_on_C,3,43,62
4,47344,Note_on_C,3,43,0
4,47344,Note_on_C,3,43,62
4,47699,Note_on_C,3,43,0
4,47699,Note_on_C,3,43,62
4,48054,Note_on_C,3,43,0
4,48054,Note_on_C,3,43,62
4,48409,Note_on_C,3,43,0
4,48409,Note_on_C,3,43,62
4,48764,Note_on_C,3,43,0
4,48764,Note_on_C,3,43,62
4,49119,Note_on_C,3,43,0
4,49119,Note_on_C,3,43,62
4,49474,Note_on_C,3,43,0
4,49474,Note_on_C,3,43,62
4,49829,Note_on_C,3,43,0
4,49829,Note_on_C,3,43,62
4,50184,Note_on_C,3,43,0
4,50184,Note_on_C,3,43,62
4,50539,Note_on_C,3,43,0
4,50539,Note_on_C,3,43,62
4,50894,Note_on_C,3,43,0
4,50894,Note_on_C,3,43,62
4,51249,Note_on_C,3,43,0
4,51249,Note_on_C,3,43,62
4,51604,Note_on_C,3,43,0
4,51604,Note_on_C,3,43,62
4,51959,Note_on_C,3,43,0
4,51959,Note_on_C,3,43,62
4,52314,Note_on_C,3,43,0
4,52314,Note_on_C,3,43,62
4,52669,Note_on_C,3,43,0
4,52669,Note_on_C,3,43,62
4,53024,Note_on_C,3,43,0
4,53024,Note_on_C,3,43,62
4,53379,Note_on_C,3,43,0
4,53379,Note_on_C,3,43,62
4,53734,Note_on_C,3,43,0
4,53734,Note_on_C,3,43,62
4,54089,Note_on_C,3,43,0
4,54089,Note_on_C,3,43,62
4,54444,Note_on_C,3,43,0
4,54444,Note_on_C,3,43,62
4,54799,Note_on_C,3,43,0
4,54799,Note_on_C,3,43,62
4,55154,Note_on_C,3,43,0
4,55154,Note_on_C,3,43,62
4,55509,Note_on_C,3,43,0
4,55509,Note_on_C,3,43,62
4,55864,Note_on_C,3,43,0
4,55864,Note_on_C,3,43,62
4,56219,Note_on_C,3,43,0
4,56219,Note_on_C,3,43,62
4,56574,Note_on_C,3,43,0
4,56574,Note_on_C,3,43,62
4,56929,Note_on_C,3,43,0
4,56929,Note_on_C,3,43,62
4,57284,Note_on_C,3,43,0
4,57284,Note_on_C,3,43,62
4,57639,Note_on_C,3,43,0
4,57639,Note_on_C,3,43,62
4,57994,Note_on_C,3,43,0
4,57994,Note_on_C,3,43,62
4,58349,Note_on_C,3,43,0
4,58349,Note_on_C,3,43,62
4,58704,Note_on_C,3,43,0
4,58704,Note_on_C,3,43,62
4,59059,Note_on_C,3,43,0
4,59059,Note_on_C,3,43,62
4,59414,Note_on_C,3,43,0
4,59414,Note_on_C,3,43,62
4,59769,Note_on_C,3,43,0
4,59769,Note_on_C,3,43,62
4,60124,Note_on_C,3,43,0
4,60124,Note_on_C,3,43,62
4,60479,Note_on_C,3,43,0
4,60479,Note_on_C,3,43,62
4,60834,Note_on_C,3,43,0
4,60834,Note_on_C,3,43,62
4,61189,Note_on_C,3,43,0
4,61189,Note_on_C,3,43,62
4,61544,Note_on_C,3,43,0
4,61544,Note_on_C,3,43,62
4,61899,Note_on_C,3,43,0
4,61899,Note_on_C,3,43,62
4,62254,Note_on_C,3,43,0
4,62254,Note_on_C,3,43,62
4,62609,Note_on_C,3,43,0
4,62609,Note_on_C,3,43,62
4,62964,Note_on_C,3,43,0
4,62964,Note_on_C,3,43,62
4,63319,Note_on_C,3,43,0
4,63319,Note_on_C,3,43,62
4,63674,Note_on_C,3,43,0
4,63674,Note_on_C,3,43,62
4,64029,Note_on_C,3,43,0
4,64029,Note_on_C,3,43,62
4,64384,Note_on_C,3,43,0
4,64384,Note_on_C,3,43,62
4,64739,Note_on_C,3,43,0
4,64739,Note_on_C,3,43,62
4,65094,Note_on_C,3,43,0
4,65094,Note_on_C,3,43,62
4,65449,Note_on_C,3,43,0
4,65449,Note_on_C,3,43,62
4,65804,Note_on_C,3,43,0
4,65804,Note_on_C,3,43,62
4,66159,Note_on_C,3,43,0
4,66159,Note_on_C,3,43,62
4,66514,Note_on_C,3,43,0
4,66514,Note_on_C,3,43,62
4,66869,Note_on_C,3,43,0
4,66869,Note_on_C,3,43,62
4,67224,Note_on_C,3,43,0
4,67224,Note_on_C,3,43,62
4,67579,Note_on_C,3,43,0
4,67579,Note_on_C,3,43,62
4,67934,Note_on_C,3,43,0
4,67934,Note_on_C,3,43,62
4,68289,Note_on_C,3,43,0
4,68289,Note_on_C,3,43,62
4,68644,Note_on_C,3,43,0
4,68644,Note_on_C,3,43,62
4,68999,Note_on_C,3,43,0
4,68999,Note_on_C,3,43,62
4,69354,Note_on_C,3,43,0
4,69354,Note_on_C,3,43,62
4,69709,Note_on_C,3,43,0
4,69709,Note_on_C,3,43,62
4,70064,Note_on_C,3,43,0
4,70064,Note_on_C,3,43,62
4,70419,Note_on_C,3,43,0
4,70419,Note_on_C,3,43,62
4,70774,Note_on_C,3,43,0
4,70774,Note_on_C,3,43,62
4,71129,Note_on_C,3,43,0
4,71129,Note_on_C,3,43,62
4,71484,Note_on_C,3,43,0
4,71484,Note_on_C,3,43,62
4,71839,Note_on_C,3,43,0
4,71839,Note_on_C,3,43,62
4,72194,Note_on_C,3,43,0
4,72194,Note_on_C,3,43,62
4,72549,Note_on_C,3,43,0
4,72549,Note_on_C,3,43,62
4,72904,Note_on_C,3,43,0
4,72904,Note_on_C,3,43,62
4,73259,Note_on_C,3,43,0
4,73259,Note_on_C,3,43,62
4,73614,Note_on_C,3,43,0
4,73614,Note_on_C,3,43,62
4,73969,Note_on_C,3,43,0
4,73969,Note_on_C,3,43,62
4,74324,Note_on_C,3,43,0
4,74324,Note_on_C,3,43,62
4,74679,Note_on_C,3,43,0
4,74679,Note_on_C,3,43,62
4,75034,Note_on_C,3,43,0
4,75034,Note_on_C,3,43,62
4,75389,Note_on_C,3,43,0
4,75389,Note_on_C,3,43,62
4,75744,Note_on_C,3,43,0
4,75744,Note_on_C,3,43,62
4,76099,Note_on_C,3,43,0
4,76099,Note_on_C,3,43,62
4,76454,Note_on_C,3,43,0
4,76454,Note_on_C,3,43,62
4,76809,Note_on_C,3,43,0
4,76809,Note_on_C,3,43,62
4,77164,Note_on_C,3,43,0
4,77164,Note_on_C,3,43,62
4,77519,Note_on_C,3,43,0
4,77519,Note_on_C,3,43,62
4,77874,Note_on_C,3,43,0
4,77874,Note_on_C,3,43,62
4,78229,Note_on_C,3,43,0
4,78229,Note_on_C,3,43,62
4,78584,Note_on_C,3,43,0
4,78584,Note_on_C,3,43,62
4,78939,Note_on_C,3,43,0
4,78939,Note_on_C,3,43,62
4,79294,Note_on_C,3,43,0
4,79294,Note_on_C,3,43,62
4,79649,Note_on_C,3,43,0
4,79649,Note_on_C,3,43,62
4,80004,Note_on_C,3,43,0
4,80004,Note_on_C,3,43,62
4,80359,Note_on_C,3,43,0
4,80359,Note_on_C,3,43,62
4,80714,Note_on_C,3,43,0
4,80714,Note_on_C,3,43,62
4,81069,Note_on_C,3,43,0
4,81069,Note_on_C,3,43,62
4,81424,Note_on_C,3,43,0
4,81424,Note_on_C,3,43,62
4,81779,Note_on_C,3,43,0
4,81779,Note_on_C,3,43,62
4,82134,Note_on_C,3,43,0
4,82134,Note_on_C,3,43,62
4,82489,Note_on_C,3,43,0
4,82489,Note_on_C,3,43,62
4,82844,Note_on_C,3,43,0
4,82844,Note_on_C,3,43,62
4,83199,Note_on_C,3,43,0
4,83199,Note_on_C,3,43,62
4,83554,Note_on_C,3,43,0
4,83554, End_track,3,0,0
5,0, Start_track,4,0,0
5, 0, MIDI_port, 0
5,0, Program_c,4,5,0
5,0, Control_c,4,5,100
5,0, Control_c,4,5,0
5,0,Note_on_C,4,64,39
5,184,Note_on_C,4,64,0
5,184,Note_on_C,4,64,39
5,368,Note_on_C,4,64,0
5,368,Note_on_C,4,65,39
5,744,Note_on_C,4,65,0
5,744,Note_on_C,4,66,39
5,1504,Note_on_C,4,66,0
5,1504,Note_on_C,4,64,39
5,1688,Note_on_C,4,64,0
5,1688,Note_on_C,4,64,39
5,2064,Note_on_C,4,64,0
5,2064,Note_on_C,4,64,39
5,4168,Note_on_C,4,64,0
5,4168,Note_on_C,4,64,39
5,4396,Note_on_C,4,64,0
5,4396,Note_on_C,4,64,39
5,4624,Note_on_C,4,64,0
5,4624,Note_on_C,4,64,39
5,4852,Note_on_C,4,64,0
5,4852,Note_on_C,4,64,39
5,5080,Note_on_C,4,64,0
5,5080,Note_on_C,4,64,39
5,5308,Note_on_C,4,64,0
5,5308,Note_on_C,4,64,39
5,5536,Note_on_C,4,64,0
5,5536,Note_on_C,4,64,39
5,5764,Note_on_C,4,64,0
5,5764,Note_on_C,4,63,39
5,5992,Note_on_C,4,63,0
5,5992,Note_on_C,4,63,39
5,6220,Note_on_C,4,63,0
5,6220,Note_on_C,4,63,39
5,6448,Note_on_C,4,63,0
5,6448,Note_on_C,4,63,39
5,6676,Note_on_C,4,63,0
5,6676,Note_on_C,4,63,39
5,6904,Note_on_C,4,63,0
5,6904,Note_on_C,4,63,39
5,7132,Note_on_C,4,63,0
5,7132,Note_on_C,4,63,39
5,7360,Note_on_C,4,63,0
5,7360,Note_on_C,4,63,39
5,7588,Note_on_C,4,63,0
5,7588,Note_on_C,4,63,39
5,7816,Note_on_C,4,63,0
5,7816,Note_on_C,4,63,39
5,8044,Note_on_C,4,63,0
5,8044,Note_on_C,4,63,39
5,8272,Note_on_C,4,63,0
5,8272,Note_on_C,4,63,39
5,8500,Note_on_C,4,63,0
5,8500,Note_on_C,4,63,39
5,8728,Note_on_C,4,63,0
5,8728,Note_on_C,4,63,39
5,8956,Note_on_C,4,63,0
5,8956,Note_on_C,4,63,39
5,9184,Note_on_C,4,63,0
5,9184,Note_on_C,4,63,39
5,9412,Note_on_C,4,63,0
5,9412,Note_on_C,4,63,39
5,9640,Note_on_C,4,63,0
5,9640,Note_on_C,4,63,39
5,9868,Note_on_C,4,63,0
5,9868,Note_on_C,4,63,39
5,10096,Note_on_C,4,63,0
5,10096,Note_on_C,4,63,39
5,10324,Note_on_C,4,63,0
5,10324,Note_on_C,4,63,39
5,10552,Note_on_C,4,63,0
5,10552,Note_on_C,4,63,39
5,10780,Note_on_C,4,63,0
5,10780,Note_on_C,4,63,39
5,11008,Note_on_C,4,63,0
5,11008,Note_on_C,4,63,39
5,11236,Note_on_C,4,63,0
5,11236,Note_on_C,4,63,39
5,11464,Note_on_C,4,63,0
5,11464,Note_on_C,4,63,39
5,11692,Note_on_C,4,63,0
5,11692,Note_on_C,4,63,39
5,11920,Note_on_C,4,63,0
5,11920,Note_on_C,4,63,39
5,12148,Note_on_C,4,63,0
5,12148,Note_on_C,4,63,39
5,12376,Note_on_C,4,63,0
5,12376,Note_on_C,4,63,39
5,12604,Note_on_C,4,63,0
5,12604,Note_on_C,4,63,39
5,12832,Note_on_C,4,63,0
5,12832,Note_on_C,4,63,39
5,13060,Note_on_C,4,63,0
5,13060,Note_on_C,4,63,39
5,13288,Note_on_C,4,63,0
5,13288,Note_on_C,4,63,39
5,13516,Note_on_C,4,63,0
5,13516,Note_on_C,4,63,39
5,13744,Note_on_C,4,63,0
5,13744,Note_on_C,4,63,39
5,13972,Note_on_C,4,63,0
5,13972,Note_on_C,4,63,39
5,14200,Note_on_C,4,63,0
5,14200,Note_on_C,4,63,39
5,14428,Note_on_C,4,63,0
5,14428,Note_on_C,4,63,39
5,14656,Note_on_C,4,63,0
5,14656,Note_on_C,4,63,39
5,14884,Note_on_C,4,63,0
5,14884,Note_on_C,4,63,39
5,15112,Note_on_C,4,63,0
5,15112,Note_on_C,4,63,39
5,15340,Note_on_C,4,63,0
5,15340,Note_on_C,4,63,39
5,15568,Note_on_C,4,63,0
5,15568,Note_on_C,4,63,39
5,15796,Note_on_C,4,63,0
5,15796,Note_on_C,4,63,39
5,16024,Note_on_C,4,63,0
5,16024,Note_on_C,4,63,39
5,16252,Note_on_C,4,63,0
5,16252,Note_on_C,4,63,39
5,16480,Note_on_C,4,63,0
5,16480,Note_on_C,4,63,39
5,16708,Note_on_C,4,63,0
5,16708,Note_on_C,4,63,39
5,16936,Note_on_C,4,63,0
5,16936,Note_on_C,4,63,39
5,17164,Note_on_C,4,63,0
5,17164,Note_on_C,4,63,39
5,17392,Note_on_C,4,63,0
5,17392,Note_on_C,4,63,39
5,17620,Note_on_C,4,63,0
5,17620,Note_on_C,4,63,39
5,17848,Note_on_C,4,63,0
5,17848,Note_on_C,4,63,39
5,18076,Note_on_C,4,63,0
5,18076,Note_on_C,4,63,39
5,18304,Note_on_C,4,63,0
5,18304,Note_on_C,4,63,39
5,18532,Note_on_C,4,63,0
5,18532,Note_on_C,4,63,39
5,18760,Note_on_C,4,63,0
5,18760,Note_on_C,4,63,39
5,18988,Note_on_C,4,63,0
5,18988,Note_on_C,4,63,39
5,19216,Note_on_C,4,63,0
5,19216,Note_on_C,4,63,39
5,19444,Note_on_C,4,63,0
5,19444,Note_on_C,4,63,39
5,19672,Note_on_C,4,63,0
5,19672,Note_on_C,4,63,39
5,19900,Note_on_C,4,63,0
5,19900,Note_on_C,4,63,39
5,20128,Note_on_C,4,63,0
5,20128,Note_on_C,4,63,39
5,20356,Note_on_C,4,63,0
5,20356,Note_on_C,4,63,39
5,20584,Note_on_C,4,63,0
5,20584,Note_on_C,4,63,39
5,20812,Note_on_C,4,63,0
5,20812,Note_on_C,4,63,39
5,21040,Note_on_C,4,63,0
5,21040,Note_on_C,4,63,39
5,21268,Note_on_C,4,63,0
5,21268,Note_on_C,4,63,39
5,21496,Note_on_C,4,63,0
5,21496,Note_on_C,4,63,39
5,21724,Note_on_C,4,63,0
5,21724,Note_on_C,4,63,39
5,21952,Note_on_C,4,63,0
5,21952,Note_on_C,4,63,39
5,22180,Note_on_C,4,63,0
5,22180,Note_on_C,4,63,39
5,22408,Note_on_C,4,63,0
5,22408,Note_on_C,4,63,39
5,22636,Note_on_C,4,63,0
5,22636,Note_on_C,4,63,39
5,22864,Note_on_C,4,63,0
5,22864,Note_on_C,4,63,39
5,23092,Note_on_C,4,63,0
5,23092,Note_on_C,4,63,39
5,23320,Note_on_C,4,63,0
5,23320,Note_on_C,4,63,39
5,23548,Note_on_C,4,63,0
5,23548,Note_on_C,4,63,39
5,23776,Note_on_C,4,63,0
5,23776,Note_on_C,4,63,39
5,24004,Note_on_C,4,63,0
5,24004,Note_on_C,4,63,39
5,24232,Note_on_C,4,63,0
5,24232,Note_on_C,4,63,39
5,24460,Note_on_C,4,63,0
5,24460,Note_on_C,4,63,39
5,24688,Note_on_C,4,63,0
5,24688,Note_on_C,4,63,39
5,24916,Note_on_C,4,63,0
5,24916,Note_on_C,4,63,39
5,25144,Note_on_C,4,63,0
5,25144,Note_on_C,4,63,39
5,25372,Note_on_C,4,63,0
5,25372,Note_on_C,4,63,39
5,25600,Note_on_C,4,63,0
5,25600,Note_on_C,4,63,39
5,25828,Note_on_C,4,63,0
5,25828,Note_on_C,4,63,39
5,26056,Note_on_C,4,63,0
5,26056,Note_on_C,4,63,39
5,26284,Note_on_C,4,63,0
5,26284,Note_on_C,4,63,39
5,26512,Note_on_C,4,63,0
5,26512,Note_on_C,4,63,39
5,26740,Note_on_C,4,63,0
5,26740,Note_on_C,4,63,39
5,26968,Note_on_C,4,63,0
5,26968,Note_on_C,4,63,39
5,27196,Note_on_C,4,63,0
5,27196,Note_on_C,4,63,39
5,27424,Note_on_C,4,63,0
5,27424,Note_on_C,4,63,39
5,27652,Note_on_C,4,63,0
5,27652,Note_on_C,4,63,39
5,27880,Note_on_C,4,63,0
5,27880,Note_on_C,4,63,39
5,28108,Note_on_C,4,63,0
5,28108,Note_on_C,4,63,39
5,28336,Note_on_C,4,63,0
5,28336,Note_on_C,4,63,39
5,28564,Note_on_C,4,63,0
5,28564,Note_on_C,4,63,39
5,28792,Note_on_C,4,63,0
5,28792,Note_on_C,4,63,39
5,29020,Note_on_C,4,63,0
5,29020,Note_on_C,4,63,39
5,29248,Note_on_C,4,63,0
5,29248,Note_on_C,4,63,39
5,29476,Note_on_C,4,63,0
5,29476,Note_on_C,4,63,39
5,29704,Note_on_C,4,63,0
5,29704,Note_on_C,4,63,39
5,29932,Note_on_C,4,63,0
5,29932,Note_on_C,4,63,39
5,30160,Note_on_C,4,63,0
5,30160,Note_on_C,4,63,39
5,30388,Note_on_C,4,63,0
5,30388,Note_on_C,4,63,39
5,30616,Note_on_C,4,63,0
5,30616,Note_on_C,4,63,39
5,30844,Note_on_C,4,63,0
5,30844,Note_on_C,4,63,39
5,31072,Note_on_C,4,63,0
5,31072,Note_on_C,4,63,39
5,31300,Note_on_C,4,63,0
5,31300,Note_on_C,4,63,39
5,31528,Note_on_C,4,63,0
5,31528,Note_on_C,4,63,39
5,31756,Note_on_C,4,63,0
5,31756,Note_on_C,4,63,39
5,31984,Note_on_C,4,63,0
5,31984,Note_on_C,4,63,39
5,32212,Note_on_C,4,63,0
5,32212,Note_on_C,4,63,39
5,32440,Note_on_C,4,63,0
5,32440,Note_on_C,4,63,39
5,32668,Note_on_C,4,63,0
5,32668,Note_on_C,4,63,39
5,32896,Note_on_C,4,63,0
5,32896, End_track,4,0,0
6,0, Start_track,5,0,0
6, 0, MIDI_port, 0
6,0, Program_c,5,5,0
6,0, Control_c,5,5,100
6,0, Control_c,5,5,0
6,0,Note_on_C,5,66,78
6,184,Note_on_C,5,66,0
6,184,Note_on_C,5,69,78
6,368,Note_on_C,5,69,0
6,368,Note_on_C,5,67,78
6,1128,Note_on_C,5,67,0
6,1128,Note_on_C,5,72,78
6,1888,Note_on_C,5,72,0
6,1888,Note_on_C,5,62,78
6,1936,Note_on_C,5,62,0
6,1936,Note_on_C,5,69,78
6,1984,Note_on_C,5,69,0
6,1984,Note_on_C,5,74,78
6,3320,Note_on_C,5,74,0
6,3320,Note_on_C,5,65,78
6,3591,Note_on_C,5,65,0
6,3591,Note_on_C,5,68,78
6,3862,Note_on_C,5,68,0
6,3862,Note_on_C,5,69,78
6,4133,Note_on_C,5,69,0
6,4133,Note_on_C,5,66,78
6,4404,Note_on_C,5,66,0
6,4404,Note_on_C,5,67,78
6,4675,Note_on_C,5,67,0
6,4675,Note_on_C,5,67,78
6,4946,Note_on_C,5,67,0
6,4946,Note_on_C,5,65,78
6,5217,Note_on_C,5,65,0
6,5217,Note_on_C,5,66,78
6,5488,Note_on_C,5,66,0
6,5488,Note_on_C,5,66,78
6,5759,Note_on_C,5,66,0
6,5759,Note_on_C,5,65,78
6,6030,Note_on_C,5,65,0
6,6030,Note_on_C,5,65,78
6,6301,Note_on_C,5,65,0
6,6301,Note_on_C,5,65,78
6,6572,Note_on_C,5,65,0
6,6572,Note_on_C,5,64,78
6,6843,Note_on_C,5,64,0
6,6843,Note_on_C,5,64,78
6,7114,Note_on_C,5,64,0
6,7114,Note_on_C,5,64,78
6,7385,Note_on_C,5,64,0
6,7385,Note_on_C,5,64,78
6,7656,Note_on_C,5,64,0
6,7656,Note_on_C,5,64,78
6,7927,Note_on_C,5,64,0
6,7927,Note_on_C,5,64,78
6,8198,Note_on_C,5,64,0
6,8198,Note_on_C,5,64,78
6,8469,Note_on_C,5,64,0
6,8469,Note_on_C,5,64,78
6,8740,Note_on_C,5,64,0
6,8740,Note_on_C,5,64,78
6,9011,Note_on_C,5,64,0
6,9011,Note_on_C,5,63,78
6,9282,Note_on_C,5,63,0
6,9282,Note_on_C,5,63,78
6,9553,Note_on_C,5,63,0
6,9553,Note_on_C,5,63,78
6,9824,Note_on_C,5,63,0
6,9824,Note_on_C,5,63,78
6,10095,Note_on_C,5,63,0
6,10095,Note_on_C,5,63,78
6,10366,Note_on_C,5,63,0
6,10366,Note_on_C,5,63,78
6,10637,Note_on_C,5,63,0
6,10637,Note_on_C,5,63,78
6,10908,Note_on_C,5,63,0
6,10908,Note_on_C,5,63,78
6,11179,Note_on_C,5,63,0
6,11179,Note_on_C,5,63,78
6,11450,Note_on_C,5,63,0
6,11450,Note_on_C,5,63,78
6,11721,Note_on_C,5,63,0
6,11721,Note_on_C,5,63,78
6,11992,Note_on_C,5,63,0
6,11992,Note_on_C,5,63,78
6,12263,Note_on_C,5,63,0
6,12263,Note_on_C,5,63,78
6,12534,Note_on_C,5,63,0
6,12534,Note_on_C,5,63,78
6,12805,Note_on_C,5,63,0
6,12805,Note_on_C,5,63,78
6,13076,Note_on_C,5,63,0
6,13076,Note_on_C,5,63,78
6,13347,Note_on_C,5,63,0
6,13347,Note_on_C,5,63,78
6,13618,Note_on_C,5,63,0
6,13618,Note_on_C,5,63,78
6,13889,Note_on_C,5,63,0
6,13889,Note_on_C,5,63,78
6,14160,Note_on_C,5,63,0
6,14160,Note_on_C,5,63,78
6,14431,Note_on_C,5,63,0
6,14431,Note_on_C,5,63,78
6,14702,Note_on_C,5,63,0
6,14702,Note_on_C,5,63,78
6,14973,Note_on_C,5,63,0
6,14973,Note_on_C,5,63,78
6,15244,Note_on_C,5,63,0
6,15244,Note_on_C,5,63,78
6,15515,Note_on_C,5,63,0
6,15515,Note_on_C,5,63,78
6,15786,Note_on_C,5,63,0
6,15786,Note_on_C,5,63,78
6,16057,Note_on_C,5,63,0
6,16057,Note_on_C,5,63,78
6,16328,Note_on_C,5,63,0
6,16328,Note_on_C,5,63,78
6,16599,Note_on_C,5,63,0
6,16599,Note_on_C,5,63,78
6,16870,Note_on_C,5,63,0
6,16870,Note_on_C,5,63,78
6,17141,Note_on_C,5,63,0
6,17141,Note_on_C,5,63,78
6,17412,Note_on_C,5,63,0
6,17412,Note_on_C,5,63,78
6,17683,Note_on_C,5,63,0
6,17683,Note_on_C,5,63,78
6,17954,Note_on_C,5,63,0
6,17954,Note_on_C,5,63,78
6,18225,Note_on_C,5,63,0
6,18225,Note_on_C,5,63,78
6,18496,Note_on_C,5,63,0
6,18496,Note_on_C,5,63,78
6,18767,Note_on_C,5,63,0
6,18767,Note_on_C,5,63,78
6,19038,Note_on_C,5,63,0
6,19038,Note_on_C,5,63,78
6,19309,Note_on_C,5,63,0
6,19309,Note_on_C,5,63,78
6,19580,Note_on_C,5,63,0
6,19580,Note_on_C,5,63,78
6,19851,Note_on_C,5,63,0
6,19851,Note_on_C,5,63,78
6,20122,Note_on_C,5,63,0
6,20122,Note_on_C,5,63,78
6,20393,Note_on_C,5,63,0
6,20393,Note_on_C,5,63,78
6,20664,Note_on_C,5,63,0
6,20664,Note_on_C,5,63,78
6,20935,Note_on_C,5,63,0
6,20935,Note_on_C,5,63,78
6,21206,Note_on_C,5,63,0
6,21206,Note_on_C,5,63,78
6,21477,Note_on_C,5,63,0
6,21477,Note_on_C,5,63,78
6,21748,Note_on_C,5,63,0
6,21748,Note_on_C,5,63,78
6,22019,Note_on_C,5,63,0
6,22019,Note_on_C,5,63,78
6,22290,Note_on_C,5,63,0
6,22290,Note_on_C,5,63,78
6,22561,Note_on_C,5,63,0
6,22561,Note_on_C,5,63,78
6,22832,Note_on_C,5,63,0
6,22832,Note_on_C,5,63,78
6,23103,Note_on_C,5,63,0
6,23103,Note_on_C,5,63,78
6,23374,Note_on_C,5,63,0
6,23374,Note_on_C,5,63,78
6,23645,Note_on_C,5,63,0
6,23645,Note_on_C,5,63,78
6,23916,Note_on_C,5,63,0
6,23916,Note_on_C,5,63,78
6,24187,Note_on_C,5,63,0
6,24187,Note_on_C,5,63,78
6,24458,Note_on_C,5,63,0
6,24458,Note_on_C,5,63,78
6,24729,Note_on_C,5,63,0
6,24729,Note_on_C,5,63,78
6,25000,Note_on_C,5,63,0
6,25000,Note_on_C,5,63,78
6,25271,Note_on_C,5,63,0
6,25271,Note_on_C,5,63,78
6,25542,Note_on_C,5,63,0
6,25542,Note_on_C,5,63,78
6,25813,Note_on_C,5,63,0
6,25813,Note_on_C,5,63,78
6,26084,Note_on_C,5,63,0
6,26084,Note_on_C,5,63,78
6,26355,Note_on_C,5,63,0
6,26355,Note_on_C,5,63,78
6,26626,Note_on_C,5,63,0
6,26626,Note_on_C,5,63,78
6,26897,Note_on_C,5,63,0
6,26897,Note_on_C,5,63,78
6,27168,Note_on_C,5,63,0
6,27168,Note_on_C,5,63,78
6,27439,Note_on_C,5,63,0
6,27439,Note_on_C,5,63,78
6,27710,Note_on_C,5,63,0
6,27710,Note_on_C,5,63,78
6,27981,Note_on_C,5,63,0
6,27981,Note_on_C,5,63,78
6,28252,Note_on_C,5,63,0
6,28252,Note_on_C,5,63,78
6,28523,Note_on_C,5,63,0
6,28523,Note_on_C,5,63,78
6,28794,Note_on_C,5,63,0
6,28794,Note_on_C,5,63,78
6,29065,Note_on_C,5,63,0
6,29065,Note_on_C,5,63,78
6,29336,Note_on_C,5,63,0
6,29336,Note_on_C,5,63,78
6,29607,Note_on_C,5,63,0
6,29607,Note_on_C,5,63,78
6,29878,Note_on_C,5,63,0
6,29878,Note_on_C,5,63,78
6,30149,Note_on_C,5,63,0
6,30149,Note_on_C,5,63,78
6,30420,Note_on_C,5,63,0
6,30420,Note_on_C,5,63,78
6,30691,Note_on_C,5,63,0
6,30691,Note_on_C,5,63,78
6,30962,Note_on_C,5,63,0
6,30962,Note_on_C,5,63,78
6,31233,Note_on_C,5,63,0
6,31233,Note_on_C,5,63,78
6,31504,Note_on_C,5,63,0
6,31504,Note_on_C,5,63,78
6,31775,Note_on_C,5,63,0
6,31775,Note_on_C,5,63,78
6,32046,Note_on_C,5,63,0
6,32046,Note_on_C,5,63,78
6,32317,Note_on_C,5,63,0
6,32317,Note_on_C,5,63,78
6,32588,Note_on_C,5,63,0
6,32588,Note_on_C,5,63,78
6,32859,Note_on_C,5,63,0
6,32859,Note_on_C,5,63,78
6,33130,Note_on_C,5,63,0
6,33130,Note_on_C,5,63,78
6,33401,Note_on_C,5,63,0
6,33401,Note_on_C,5,63,78
6,33672,Note_on_C,5,63,0
6,33672,Note_on_C,5,63,78
6,33943,Note_on_C,5,63,0
6,33943,Note_on_C,5,63,78
6,34214,Note_on_C,5,63,0
6,34214,Note_on_C,5,63,78
6,34485,Note_on_C,5,63,0
6,34485,Note_on_C,5,63,78
6,34756,Note_on_C,5,63,0
6,34756,Note_on_C,5,63,78
6,35027,Note_on_C,5,63,0
6,35027,Note_on_C,5,63,78
6,35298,Note_on_C,5,63,0
6,35298,Note_on_C,5,63,78
6,35569,Note_on_C,5,63,0
6,35569,Note_on_C,5,63,78
6,35840,Note_on_C,5,63,0
6,35840,Note_on_C,5,63,78
6,36111,Note_on_C,5,63,0
6,36111,Note_on_C,5,63,78
6,36382,Note_on_C,5,63,0
6,36382,Note_on_C,5,63,78
6,36653,Note_on_C,5,63,0
6,36653,Note_on_C,5,63,78
6,36924,Note_on_C,5,63,0
6,36924,Note_on_C,5,63,78
6,37195,Note_on_C,5,63,0
6,37195,Note_on_C,5,63,78
6,37466,Note_on_C,5,63,0
6,37466,Note_on_C,5,63,78
6,37737,Note_on_C,5,63,0
6,37737,Note_on_C,5,63,78
6,38008,Note_on_C,5,63,0
6,38008,Note_on_C,5,63,78
6,38279,Note_on_C,5,63,0
6,38279,Note_on_C,5,63,78
6,38550,Note_on_C,5,63,0
6,38550,Note_on_C,5,63,78
6,38821,Note_on_C,5,63,0
6,38821,Note_on_C,5,63,78
6,39092,Note_on_C,5,63,0
6,39092,Note_on_C,5,63,78
6,39363,Note_on_C,5,63,0
6,39363,Note_on_C,5,63,78
6,39634,Note_on_C,5,63,0
6,39634,Note_on_C,5,63,78
6,39905,Note_on_C,5,63,0
6,39905,Note_on_C,5,63,78
6,40176,Note_on_C,5,63,0
6,40176,Note_on_C,5,63,78
6,40447,Note_on_C,5,63,0
6,40447,Note_on_C,5,63,78
6,40718,Note_on_C,5,63,0
6,40718,Note_on_C,5,63,78
6,40989,Note_on_C,5,63,0
6,40989,Note_on_C,5,63,78
6,41260,Note_on_C,5,63,0
6,41260,Note_on_C,5,63,78
6,41531,Note_on_C,5,63,0
6,41531,Note_on_C,5,63,78
6,41802,Note_on_C,5,63,0
6,41802,Note_on_C,5,63,78
6,42073,Note_on_C,5,63,0
6,42073,Note_on_C,5,63,78
6,42344,Note_on_C,5,63,0
6,42344,Note_on_C,5,63,78
6,42615,Note_on_C,5,63,0
6,42615,Note_on_C,5,63,78
6,42886,Note_on_C,5,63,0
6,42886,Note_on_C,5,63,78
6,43157,Note_on_C,5,63,0
6,43157,Note_on_C,5,63,78
6,43428,Note_on_C,5,63,0
6,43428,Note_on_C,5,63,78
6,43699,Note_on_C,5,63,0
6,43699,Note_on_C,5,63,78
6,43970,Note_on_C,5,63,0
6,43970,Note_on_C,5,63,78
6,44241,Note_on_C,5,63,0
6,44241,Note_on_C,5,63,78
6,44512,Note_on_C,5,63,0
6,44512,Note_on_C,5,63,78
6,44783,Note_on_C,5,63,0
6,44783,Note_on_C,5,63,78
6,45054,Note_on_C,5,63,0
6,45054,Note_on_C,5,63,78
6,45325,Note_on_C,5,63,0
6,45325,Note_on_C,5,63,78
6,45596,Note_on_C,5,63,0
6,45596,Note_on_C,5,63,78
6,45867,Note_on_C,5,63,0
6,45867,Note_on_C,5,63,78
6,46138,Note_on_C,5,63,0
6,46138, End_track,5,0,0
7,0, Start_track,6,0,0
7, 0, MIDI_port, 0
7,0, Program_c,6,5,0
7,0, Control_c,6,5,100
7,0, Control_c,6,5,0
7,0,Note_on_C,6,58,99
7,376,Note_on_C,6,58,0
7,376,Note_on_C,6,57,99
7,560,Note_on_C,6,57,0
7,560,Note_on_C,6,55,99
7,744,Note_on_C,6,55,0
7,744,Note_on_C,6,53,99
7,1120,Note_on_C,6,53,0
7,1120,Note_on_C,6,55,99
7,1496,Note_on_C,6,55,0
7,1496,Note_on_C,6,60,99
7,2448,Note_on_C,6,60,0
7,2448,Note_on_C,6,62,99
7,2632,Note_on_C,6,62,0
7,2632,Note_on_C,6,58,99
7,2930,Note_on_C,6,58,0
7,2930,Note_on_C,6,60,99
7,3228,Note_on_C,6,60,0
7,3228,Note_on_C,6,60,99
7,3526,Note_on_C,6,60,0
7,3526,Note_on_C,6,59,99
7,3824,Note_on_C,6,59,0
7,3824,Note_on_C,6,60,99
7,4122,Note_on_C,6,60,0
7,4122,Note_on_C,6,60,99
7,4420,Note_on_C,6,60,0
7,4420,Note_on_C,6,59,99
7,4718,Note_on_C,6,59,0
7,4718,Note_on_C,6,59,99
7,5016,Note_on_C,6,59,0
7,5016,Note_on_C,6,59,99
7,5314,Note_on_C,6,59,0
7,5314,Note_on_C,6,59,99
7,5612,Note_on_C,6,59,0
7,5612,Note_on_C,6,59,99
7,5910,Note_on_C,6,59,0
7,5910,Note_on_C,6,59,99
7,6208,Note_on_C,6,59,0
7,6208,Note_on_C,6,59,99
7,6506,Note_on_C,6,59,0
7,6506,Note_on_C,6,59,99
7,6804,Note_on_C,6,59,0
7,6804,Note_on_C,6,59,99
7,7102,Note_on_C,6,59,0
7,7102,Note_on_C,6,59,99
7,7400,Note_on_C,6,59,0
7,7400,Note_on_C,6,59,99
7,7698,Note_on_C,6,59,0
7,7698,Note_on_C,6,59,99
7,7996,Note_on_C,6,59,0
7,7996,Note_on_C,6,59,99
7,8294,Note_on_C,6,59,0
7,8294,Note_on_C,6,59,99
7,8592,Note_on_C,6,59,0
7,8592,Note_on_C,6,59,99
7,8890,Note_on_C,6,59,0
7,8890,Note_on_C,6,59,99
7,9188,Note_on_C,6,59,0
7,9188,Note_on_C,6,59,99
7,9486,Note_on_C,6,59,0
7,9486,Note_on_C,6,59,99
7,9784,Note_on_C,6,59,0
7,9784,Note_on_C,6,59,99
7,10082,Note_on_C,6,59,0
7,10082,Note_on_C,6,59,99
7,10380,Note_on_C,6,59,0
7,10380,Note_on_C,6,59,99
7,10678,Note_on_C,6,59,0
7,10678,Note_on_C,6,59,99
7,10976,Note_on_C,6,59,0
7,10976,Note_on_C,6,59,99
7,11274,Note_on_C,6,59,0
7,11274,Note_on_C,6,59,99
7,11572,Note_on_C,6,59,0
7,11572,Note_on_C,6,59,99
7,11870,Note_on_C,6,59,0
7,11870,Note_on_C,6,59,99
7,12168,Note_on_C,6,59,0
7,12168,Note_on_C,6,59,99
7,12466,Note_on_C,6,59,0
7,12466,Note_on_C,6,59,99
7,12764,Note_on_C,6,59,0
7,12764,Note_on_C,6,59,99
7,13062,Note_on_C,6,59,0
7,13062,Note_on_C,6,59,99
7,13360,Note_on_C,6,59,0
7,13360,Note_on_C,6,59,99
7,13658,Note_on_C,6,59,0
7,13658,Note_on_C,6,59,99
7,13956,Note_on_C,6,59,0
7,13956,Note_on_C,6,59,99
7,14254,Note_on_C,6,59,0
7,14254,Note_on_C,6,59,99
7,14552,Note_on_C,6,59,0
7,14552,Note_on_C,6,59,99
7,14850,Note_on_C,6,59,0
7,14850,Note_on_C,6,59,99
7,15148,Note_on_C,6,59,0
7,15148,Note_on_C,6,59,99
7,15446,Note_on_C,6,59,0
7,15446,Note_on_C,6,59,99
7,15744,Note_on_C,6,59,0
7,15744,Note_on_C,6,59,99
7,16042,Note_on_C,6,59,0
7,16042,Note_on_C,6,59,99
7,16340,Note_on_C,6,59,0
7,16340,Note_on_C,6,59,99
7,16638,Note_on_C,6,59,0
7,16638,Note_on_C,6,59,99
7,16936,Note_on_C,6,59,0
7,16936,Note_on_C,6,59,99
7,17234,Note_on_C,6,59,0
7,17234,Note_on_C,6,59,99
7,17532,Note_on_C,6,59,0
7,17532,Note_on_C,6,59,99
7,17830,Note_on_C,6,59,0
7,17830,Note_on_C,6,59,99
7,18128,Note_on_C,6,59,0
7,18128,Note_on_C,6,59,99
7,18426,Note_on_C,6,59,0
7,18426,Note_on_C,6,59,99
7,18724,Note_on_C,6,59,0
7,18724,Note_on_C,6,59,99
7,19022,Note_on_C,6,59,0
7,19022,Note_on_C,6,59,99
7,19320,Note_on_C,6,59,0
7,19320,Note_on_C,6,59,99
7,19618,Note_on_C,6,59,0
7,19618,Note_on_C,6,59,99
7,19916,Note_on_C,6,59,0
7,19916,Note_on_C,6,59,99
7,20214,Note_on_C,6,59,0
7,20214,Note_on_C,6,59,99
7,20512,Note_on_C,6,59,0
7,20512,Note_on_C,6,59,99
7,20810,Note_on_C,6,59,0
7,20810,Note_on_C,6,59,99
7,21108,Note_on_C,6,59,0
7,21108,Note_on_C,6,59,99
7,21406,Note_on_C,6,59,0
7,21406,Note_on_C,6,59,99
7,21704,Note_on_C,6,59,0
7,21704,Note_on_C,6,59,99
7,22002,Note_on_C,6,59,0
7,22002,Note_on_C,6,59,99
7,22300,Note_on_C,6,59,0
7,22300,Note_on_C,6,59,99
7,22598,Note_on_C,6,59,0
7,22598,Note_on_C,6,59,99
7,22896,Note_on_C,6,59,0
7,22896, End_track,6,0,0
8,0, Start_track,7,0,0
8, 0, MIDI_port, 0
8,0, Program_c,7,5,0
8,0, Control_c,7,5,100
8,0, Control_c,7,5,0
8,0,Note_on_C,7,67,99
8,376,Note_on_C,7,67,0
8,376,Note_on_C,7,67,99
8,752,Note_on_C,7,67,0
8,752,Note_on_C,7,69,99
8,1128,Note_on_C,7,69,0
8,1128,Note_on_C,7,69,99
8,2272,Note_on_C,7,69,0
8,2272,Note_on_C,7,69,99
8,2648,Note_on_C,7,69,0
8,2648,Note_on_C,7,67,99
8,2832,Note_on_C,7,67,0
8,2832,Note_on_C,7,64,99
8,3208,Note_on_C,7,64,0
8,3208,Note_on_C,7,68,99
8,3635,Note_on_C,7,68,0
8,3635,Note_on_C,7,67,99
8,4062,Note_on_C,7,67,0
8,4062,Note_on_C,7,66,99
8,4489,Note_on_C,7,66,0
8,4489,Note_on_C,7,67,99
8,4916,Note_on_C,7,67,0
8,4916,Note_on_C,7,67,99
8,5343,Note_on_C,7,67,0
8,5343,Note_on_C,7,66,99
8,5770,Note_on_C,7,66,0
8,5770,Note_on_C,7,67,99
8,6197,Note_on_C,7,67,0
8,6197,Note_on_C,7,67,99
8,6624,Note_on_C,7,67,0
8,6624,Note_on_C,7,67,99
8,7051,Note_on_C,7,67,0
8,7051,Note_on_C,7,67,99
8,7478,Note_on_C,7,67,0
8,7478,Note_on_C,7,67,99
8,7905,Note_on_C,7,67,0
8,7905,Note_on_C,7,67,99
8,8332,Note_on_C,7,67,0
8,8332,Note_on_C,7,67,99
8,8759,Note_on_C,7,67,0
8,8759,Note_on_C,7,67,99
8,9186,Note_on_C,7,67,0
8,9186,Note_on_C,7,67,99
8,9613,Note_on_C,7,67,0
8,9613,Note_on_C,7,67,99
8,10040,Note_on_C,7,67,0
8,10040,Note_on_C,7,67,99
8,10467,Note_on_C,7,67,0
8,10467,Note_on_C,7,67,99
8,10894,Note_on_C,7,67,0
8,10894,Note_on_C,7,67,99
8,11321,Note_on_C,7,67,0
8,11321,Note_on_C,7,68,99
8,11748,Note_on_C,7,68,0
8,11748,Note_on_C,7,68,99
8,12175,Note_on_C,7,68,0
8,12175,Note_on_C,7,68,99
8,12602,Note_on_C,7,68,0
8,12602,Note_on_C,7,68,99
8,13029,Note_on_C,7,68,0
8,13029,Note_on_C,7,68,99
8,13456,Note_on_C,7,68,0
8,13456,Note_on_C,7,68,99
8,13883,Note_on_C,7,68,0
8,13883,Note_on_C,7,68,99
8,14310,Note_on_C,7,68,0
8,14310,Note_on_C,7,68,99
8,14737,Note_on_C,7,68,0
8,14737,Note_on_C,7,68,99
8,15164,Note_on_C,7,68,0
8,15164,Note_on_C,7,68,99
8,15591,Note_on_C,7,68,0
8,15591,Note_on_C,7,68,99
8,16018,Note_on_C,7,68,0
8,16018,Note_on_C,7,68,99
8,16445,Note_on_C,7,68,0
8,16445,Note_on_C,7,68,99
8,16872,Note_on_C,7,68,0
8,16872,Note_on_C,7,68,99
8,17299,Note_on_C,7,68,0
8,17299,Note_on_C,7,68,99
8,17726,Note_on_C,7,68,0
8,17726,Note_on_C,7,68,99
8,18153,Note_on_C,7,68,0
8,18153,Note_on_C,7,68,99
8,18580,Note_on_C,7,68,0
8,18580,Note_on_C,7,68,99
8,19007,Note_on_C,7,68,0
8,19007,Note_on_C,7,68,99
8,19434,Note_on_C,7,68,0
8,19434,Note_on_C,7,68,99
8,19861,Note_on_C,7,68,0
8,19861,Note_on_C,7,68,99
8,20288,Note_on_C,7,68,0
8,20288,Note_on_C,7,68,99
8,20715,Note_on_C,7,68,0
8,20715,Note_on_C,7,68,99
8,21142,Note_on_C,7,68,0
8,21142,Note_on_C,7,68,99
8,21569,Note_on_C,7,68,0
8,21569,Note_on_C,7,68,99
8,21996,Note_on_C,7,68,0
8,21996,Note_on_C,7,68,99
8,22423,Note_on_C,7,68,0
8,22423,Note_on_C,7,68,99
8,22850,Note_on_C,7,68,0
8,22850,Note_on_C,7,68,99
8,23277,Note_on_C,7,68,0
8,23277,Note_on_C,7,68,99
8,23704,Note_on_C,7,68,0
8,23704,Note_on_C,7,68,99
8,24131,Note_on_C,7,68,0
8,24131,Note_on_C,7,68,99
8,24558,Note_on_C,7,68,0
8,24558,Note_on_C,7,68,99
8,24985,Note_on_C,7,68,0
8,24985,Note_on_C,7,68,99
8,25412,Note_on_C,7,68,0
8,25412,Note_on_C,7,68,99
8,25839,Note_on_C,7,68,0
8,25839,Note_on_C,7,68,99
8,26266,Note_on_C,7,68,0
8,26266,Note_on_C,7,68,99
8,26693,Note_on_C,7,68,0
8,26693,Note_on_C,7,68,99
8,27120,Note_on_C,7,68,0
8,27120,Note_on_C,7,68,99
8,27547,Note_on_C,7,68,0
8,27547,Note_on_C,7,68,99
8,27974,Note_on_C,7,68,0
8,27974,Note_on_C,7,68,99
8,28401,Note_on_C,7,68,0
8,28401,Note_on_C,7,68,99
8,28828,Note_on_C,7,68,0
8,28828,Note_on_C,7,69,99
8,29255,Note_on_C,7,69,0
8,29255,Note_on_C,7,69,99
8,29682,Note_on_C,7,69,0
8,29682,Note_on_C,7,69,99
8,30109,Note_on_C,7,69,0
8,30109,Note_on_C,7,69,99
8,30536,Note_on_C,7,69,0
8,30536,Note_on_C,7,69,99
8,30963,Note_on_C,7,69,0
8,30963,Note_on_C,7,69,99
8,31390,Note_on_C,7,69,0
8,31390,Note_on_C,7,69,99
8,31817,Note_on_C,7,69,0
8,31817, End_track,7,0,0
9,0, Start_track,8,0,0
9, 0, MIDI_port, 0
9,0, Program_c,8,5,0
9,0, Control_c,8,5,100
9,0, Control_c,8,5,0
9,0,Note_on_C,8,76,99
9,376,Note_on_C,8,76,0
9,376,Note_on_C,8,76,99
9,752,Note_on_C,8,76,0
9,752,Note_on_C,8,74,99
9,936,Note_on_C,8,74,0
9,936,Note_on_C,8,72,99
9,2272,Note_on_C,8,72,0
9,2272,Note_on_C,8,69,99
9,2648,Note_on_C,8,69,0
9,2648,Note_on_C,8,72,99
9,2832,Note_on_C,8,72,0
9,2832,Note_on_C,8,72,99
9,3208,Note_on_C,8,72,0
9,3208,Note_on_C,8,71,99
9,3594,Note_on_C,8,71,0
9,3594,Note_on_C,8,72,99
9,3980,Note_on_C,8,72,0
9,3980,Note_on_C,8,72,99
9,4366,Note_on_C,8,72,0
9,4366,Note_on_C,8,72,99
9,4752,Note_on_C,8,72,0
9,4752,Note_on_C,8,72,99
9,5138,Note_on_C,8,72,0
9,5138,Note_on_C,8,72,99
9,5524,Note_on_C,8,72,0
9,5524,Note_on_C,8,72,99
9,5910,Note_on_C,8,72,0
9,5910,Note_on_C,8,72,99
9,6296,Note_on_C,8,72,0
9,6296,Note_on_C,8,72,99
9,6682,Note_on_C,8,72,0
9,6682,Note_on_C,8,72,99
9,7068,Note_on_C,8,72,0
9,7068,Note_on_C,8,72,99
9,7454,Note_on_C,8,72,0
9,7454,Note_on_C,8,72,99
9,7840,Note_on_C,8,72,0
9,7840,Note_on_C,8,72,99
9,8226,Note_on_C,8,72,0
9,8226,Note_on_C,8,72,99
9,8612,Note_on_C,8,72,0
9,8612,Note_on_C,8,72,99
9,8998,Note_on_C,8,72,0
9,8998,Note_on_C,8,72,99
9,9384,Note_on_C,8,72,0
9,9384,Note_on_C,8,72,99
9,9770,Note_on_C,8,72,0
9,9770,Note_on_C,8,72,99
9,10156,Note_on_C,8,72,0
9,10156,Note_on_C,8,72,99
9,10542,Note_on_C,8,72,0
9,10542,Note_on_C,8,72,99
9,10928,Note_on_C,8,72,0
9,10928,Note_on_C,8,72,99
9,11314,Note_on_C,8,72,0
9,11314,Note_on_C,8,72,99
9,11700,Note_on_C,8,72,0
9,11700,Note_on_C,8,72,99
9,12086,Note_on_C,8,72,0
9,12086,Note_on_C,8,72,99
9,12472,Note_on_C,8,72,0
9,12472,Note_on_C,8,72,99
9,12858,Note_on_C,8,72,0
9,12858,Note_on_C,8,72,99
9,13244,Note_on_C,8,72,0
9,13244,Note_on_C,8,72,99
9,13630,Note_on_C,8,72,0
9,13630,Note_on_C,8,72,99
9,14016,Note_on_C,8,72,0
9,14016,Note_on_C,8,72,99
9,14402,Note_on_C,8,72,0
9,14402,Note_on_C,8,72,99
9,14788,Note_on_C,8,72,0
9,14788,Note_on_C,8,72,99
9,15174,Note_on_C,8,72,0
9,15174,Note_on_C,8,72,99
9,15560,Note_on_C,8,72,0
9,15560,Note_on_C,8,72,99
9,15946,Note_on_C,8,72,0
9,15946,Note_on_C,8,72,99
9,16332,Note_on_C,8,72,0
9,16332,Note_on_C,8,72,99
9,16718,Note_on_C,8,72,0
9,16718,Note_on_C,8,72,99
9,17104,Note_on_C,8,72,0
9,17104,Note_on_C,8,72,99
9,17490,Note_on_C,8,72,0
9,17490,Note_on_C,8,72,99
9,17876,Note_on_C,8,72,0
9,17876,Note_on_C,8,72,99
9,18262,Note_on_C,8,72,0
9,18262,Note_on_C,8,72,99
9,18648,Note_on_C,8,72,0
9,18648,Note_on_C,8,72,99
9,19034,Note_on_C,8,72,0
9,19034,Note_on_C,8,72,99
9,19420,Note_on_C,8,72,0
9,19420,Note_on_C,8,72,99
9,19806,Note_on_C,8,72,0
9,19806,Note_on_C,8,72,99
9,20192,Note_on_C,8,72,0
9,20192,Note_on_C,8,72,99
9,20578,Note_on_C,8,72,0
9,20578,Note_on_C,8,72,99
9,20964,Note_on_C,8,72,0
9,20964,Note_on_C,8,72,99
9,21350,Note_on_C,8,72,0
9,21350,Note_on_C,8,72,99
9,21736,Note_on_C,8,72,0
9,21736,Note_on_C,8,72,99
9,22122,Note_on_C,8,72,0
9,22122,Note_on_C,8,72,99
9,22508,Note_on_C,8,72,0
9,22508,Note_on_C,8,72,99
9,22894,Note_on_C,8,72,0
9,22894,Note_on_C,8,72,99
9,23280,Note_on_C,8,72,0
9,23280,Note_on_C,8,72,99
9,23666,Note_on_C,8,72,0
9,23666,Note_on_C,8,72,99
9,24052,Note_on_C,8,72,0
9,24052,Note_on_C,8,72,99
9,24438,Note_on_C,8,72,0
9,24438,Note_on_C,8,72,99
9,24824,Note_on_C,8,72,0
9,24824,Note_on_C,8,72,99
9,25210,Note_on_C,8,72,0
9,25210,Note_on_C,8,72,99
9,25596,Note_on_C,8,72,0
9,25596,Note_on_C,8,72,99
9,25982,Note_on_C,8,72,0
9,25982,Note_on_C,8,72,99
9,26368,Note_on_C,8,72,0
9,26368,Note_on_C,8,72,99
9,26754,Note_on_C,8,72,0
9,26754,Note_on_C,8,72,99
9,27140,Note_on_C,8,72,0
9,27140,Note_on_C,8,72,99
9,27526,Note_on_C,8,72,0
9,27526,Note_on_C,8,72,99
9,27912,Note_on_C,8,72,0
9,27912,Note_on_C,8,72,99
9,28298,Note_on_C,8,72,0
9,28298,Note_on_C,8,72,99
9,28684,Note_on_C,8,72,0
9,28684,Note_on_C,8,72,99
9,29070,Note_on_C,8,72,0
9,29070,Note_on_C,8,72,99
9,29456,Note_on_C,8,72,0
9,29456,Note_on_C,8,72,99
9,29842,Note_on_C,8,72,0
9,29842,Note_on_C,8,72,99
9,30228,Note_on_C,8,72,0
9,30228,Note_on_C,8,72,99
9,30614,Note_on_C,8,72,0
9,30614,Note_on_C,8,72,99
9,31000,Note_on_C,8,72,0
9,31000,Note_on_C,8,72,99
9,31386,Note_on_C,8,72,0
9,31386,Note_on_C,8,72,99
9,31772,Note_on_C,8,72,0
9,31772,Note_on_C,8,72,99
9,32158,Note_on_C,8,72,0
9,32158,Note_on_C,8,72,99
9,32544,Note_on_C,8,72,0
9,32544,Note_on_C,8,72,99
9,32930,Note_on_C,8,72,0
9,32930,Note_on_C,8,72,99
9,33316,Note_on_C,8,72,0
9,33316,Note_on_C,8,72,99
9,33702,Note_on_C,8,72,0
9,33702,Note_on_C,8,72,99
9,34088,Note_on_C,8,72,0
9,34088,Note_on_C,8,72,99
9,34474,Note_on_C,8,72,0
9,34474,Note_on_C,8,72,99
9,34860,Note_on_C,8,72,0
9,34860,Note_on_C,8,72,99
9,35246,Note_on_C,8,72,0
9,35246,Note_on_C,8,72,99
9,35632,Note_on_C,8,72,0
9,35632,Note_on_C,8,72,99
9,36018,Note_on_C,8,72,0
9,36018,Note_on_C,8,72,99
9,36404,Note_on_C,8,72,0
9,36404,Note_on_C,8,72,99
9,36790,Note_on_C,8,72,0
9,36790,Note_on_C,8,72,99
9,37176,Note_on_C,8,72,0
9,37176,Note_on_C,8,72,99
9,37562,Note_on_C,8,72,0
9,37562,Note_on_C,8,72,99
9,37948,Note_on_C,8,72,0
9,37948,Note_on_C,8,72,99
9,38334,Note_on_C,8,72,0
9,38334,Note_on_C,8,72,99
9,38720,Note_on_C,8,72,0
9,38720,Note_on_C,8,72,99
9,39106,Note_on_C,8,72,0
9,39106,Note_on_C,8,72,99
9,39492,Note_on_C,8,72,0
9,39492,Note_on_C,8,72,99
9,39878,Note_on_C,8,72,0
9,39878,Note_on_C,8,72,99
9,40264,Note_on_C,8,72,0
9,40264,Note_on_C,8,72,99
9,40650,Note_on_C,8,72,0
9,40650,Note_on_C,8,72,99
9,41036,Note_on_C,8,72,0
9,41036,Note_on_C,8,72,99
9,41422,Note_on_C,8,72,0
9,41422,Note_on_C,8,72,99
9,41808,Note_on_C,8,72,0
9,41808,Note_on_C,8,72,99
9,42194,Note_on_C,8,72,0
9,42194,Note_on_C,8,72,99
9,42580,Note_on_C,8,72,0
9,42580,Note_on_C,8,72,99
9,42966,Note_on_C,8,72,0
9,42966,Note_on_C,8,72,99
9,43352,Note_on_C,8,72,0
9,43352,Note_on_C,8,72,99
9,43738,Note_on_C,8,72,0
9,43738,Note_on_C,8,72,99
9,44124,Note_on_C,8,72,0
9,44124,Note_on_C,8,72,99
9,44510,Note_on_C,8,72,0
9,44510,Note_on_C,8,72,99
9,44896,Note_on_C,8,72,0
9,44896,Note_on_C,8,72,99
9,45282,Note_on_C,8,72,0
9,45282,Note_on_C,8,72,99
9,45668,Note_on_C,8,72,0
9,45668,Note_on_C,8,72,99
9,46054,Note_on_C,8,72,0
9,46054,Note_on_C,8,72,99
9,46440,Note_on_C,8,72,0
9,46440,Note_on_C,8,72,99
9,46826,Note_on_C,8,72,0
9,46826,Note_on_C,8,72,99
9,47212,Note_on_C,8,72,0
9,47212,Note_on_C,8,72,99
9,47598,Note_on_C,8,72,0
9,47598,Note_on_C,8,72,99
9,47984,Note_on_C,8,72,0
9,47984,Note_on_C,8,72,99
9,48370,Note_on_C,8,72,0
9,48370,Note_on_C,8,72,99
9,48756,Note_on_C,8,72,0
9,48756,Note_on_C,8,72,99
9,49142,Note_on_C,8,72,0
9,49142,Note_on_C,8,72,99
9,49528,Note_on_C,8,72,0
9,49528,Note_on_C,8,72,99
9,49914,Note_on_C,8,72,0
9,49914,Note_on_C,8,72,99
9,50300,Note_on_C,8,72,0
9,50300,Note_on_C,8,72,99
9,50686,Note_on_C,8,72,0
9,50686,Note_on_C,8,72,99
9,51072,Note_on_C,8,72,0
9,51072,Note_on_C,8,72,99
9,51458,Note_on_C,8,72,0
9,51458,Note_on_C,8,72,99
9,51844,Note_on_C,8,72,0
9,51844,Note_on_C,8,72,99
9,52230,Note_on_C,8,72,0
9,52230,Note_on_C,8,72,99
9,52616,Note_on_C,8,72,0
9,52616,Note_on_C,8,72,99
9,53002,Note_on_C,8,72,0
9,53002,Note_on_C,8,72,99
9,53388,Note_on_C,8,72,0
9,53388, End_track,8,0,0
10,0, Start_track,9,0,0
10, 0, MIDI_port, 0
10,0, Program_c,9,5,0
10,0, Control_c,9,5,100
10,0, Control_c,9,5,0
10,0,Note_on_C,9,64,78
10,760,Note_on_C,9,64,0
10,760,Note_on_C,9,77,78
10,1520,Note_on_C,9,77,0
10,1520,Note_on_C,9,69,78
10,1896,Note_on_C,9,69,0
10,1896,Note_on_C,9,76,78
10,2272,Note_on_C,9,76,0
10,2272,Note_on_C,9,67,78
10,3032,Note_on_C,9,67,0
10,3032,Note_on_C,9,81,78
10,3600,Note_on_C,9,81,0
10,3600,Note_on_C,9,76,78
10,3784,Note_on_C,9,76,0
10,3784,Note_on_C,9,72,78
10,4228,Note_on_C,9,72,0
10,4228,Note_on_C,9,77,78
10,4672,Note_on_C,9,77,0
10,4672,Note_on_C,9,76,78
10,5116,Note_on_C,9,76,0
10,5116,Note_on_C,9,74,78
10,5560,Note_on_C,9,74,0
10,5560,Note_on_C,9,76,78
10,6004,Note_on_C,9,76,0
10,6004,Note_on_C,9,75,78
10,6448,Note_on_C,9,75,0
10,6448,Note_on_C,9,75,78
10,6892,Note_on_C,9,75,0
10,6892,Note_on_C,9,75,78
10,7336,Note_on_C,9,75,0
10,7336,Note_on_C,9,75,78
10,7780,Note_on_C,9,75,0
10,7780,Note_on_C,9,75,78
10,8224,Note_on_C,9,75,0
10,8224,Note_on_C,9,75,78
10,8668,Note_on_C,9,75,0
10,8668, End_track,9,0,0
11,0, Start_track,10,0,0
11, 0, MIDI_port, 0
11,0, Program_c,10,5,0
11,0, Control_c,10,5,100
11,0, Control_c,10,5,0
11,0,Note_on_C,10,38,47
11,88,Note_on_C,10,38,0
11,88,Note_on_C,10,51,47
11,176,Note_on_C,10,51,0
11,176,Note_on_C,10,36,47
11,264,Note_on_C,10,36,0
11,264,Note_on_C,10,38,47
11,352,Note_on_C,10,38,0
11,352,Note_on_C,10,51,47
11,440,Note_on_C,10,51,0
11,440,Note_on_C,10,36,47
11,528,Note_on_C,10,36,0
11,528,Note_on_C,10,38,47
11,616,Note_on_C,10,38,0
11,616,Note_on_C,10,50,47
11,683,Note_on_C,10,50,0
11,683,Note_on_C,10,36,47
11,750,Note_on_C,10,36,0
11,750,Note_on_C,10,38,47
11,817,Note_on_C,10,38,0
11,817,Note_on_C,10,49,47
11,884,Note_on_C,10,49,0
11,884,Note_on_C,10,37,47
11,951,Note_on_C,10,37,0
11,951,Note_on_C,10,38,47
11,1018,Note_on_C,10,38,0
11,1018,Note_on_C,10,49,47
11,1085,Note_on_C,10,49,0
11,1085,Note_on_C,10,37,47
11,1152,Note_on_C,10,37,0
11,1152,Note_on_C,10,38,47
11,1219,Note_on_C,10,38,0
11,1219,Note_on_C,10,48,47
11,1286,Note_on_C,10,48,0
11,1286,Note_on_C,10,38,47
11,1353,Note_on_C,10,38,0
11,1353,Note_on_C,10,39,47
11,1420,Note_on_C,10,39,0
11,1420,Note_on_C,10,48,47
11,1487,Note_on_C,10,48,0
11,1487,Note_on_C,10,38,47
11,1554,Note_on_C,10,38,0
11,1554,Note_on_C,10,39,47
11,1621,Note_on_C,10,39,0
11,1621,Note_on_C,10,47,47
11,1688,Note_on_C,10,47,0
11,1688,Note_on_C,10,38,47
11,1755,Note_on_C,10,38,0
11,1755,Note_on_C,10,39,47
11,1822,Note_on_C,10,39,0
11,1822,Note_on_C,10,47,47
11,1889,Note_on_C,10,47,0
11,1889,Note_on_C,10,38,47
11,1956,Note_on_C,10,38,0
11,1956,Note_on_C,10,39,47
11,2023,Note_on_C,10,39,0
11,2023,Note_on_C,10,46,47
11,2090,Note_on_C,10,46,0
11,2090,Note_on_C,10,39,47
11,2157,Note_on_C,10,39,0
11,2157,Note_on_C,10,39,47
11,2224,Note_on_C,10,39,0
11,2224,Note_on_C,10,46,47
11,2291,Note_on_C,10,46,0
11,2291,Note_on_C,10,39,47
11,2358,Note_on_C,10,39,0
11,2358,Note_on_C,10,39,47
11,2425,Note_on_C,10,39,0
11,2425,Note_on_C,10,45,47
11,2492,Note_on_C,10,45,0
11,2492,Note_on_C,10,39,47
11,2559,Note_on_C,10,39,0
11,2559,Note_on_C,10,39,47
11,2626,Note_on_C,10,39,0
11,2626,Note_on_C,10,45,47
11,2693,Note_on_C,10,45,0
11,2693,Note_on_C,10,39,47
11,2760,Note_on_C,10,39,0
11,2760,Note_on_C,10,39,47
11,2827,Note_on_C,10,39,0
11,2827,Note_on_C,10,44,47
11,2894,Note_on_C,10,44,0
11,2894,Note_on_C,10,39,47
11,2961,Note_on_C,10,39,0
11,2961,Note_on_C,10,39,47
11,3028,Note_on_C,10,39,0
11,3028,Note_on_C,10,44,47
11,3095,Note_on_C,10,44,0
11,3095,Note_on_C,10,39,47
11,3162,Note_on_C,10,39,0
11,3162,Note_on_C,10,39,47
11,3229,Note_on_C,10,39,0
11,3229,Note_on_C,10,44,47
11,3296,Note_on_C,10,44,0
11,3296,Note_on_C,10,39,47
11,3363,Note_on_C,10,39,0
11,3363,Note_on_C,10,39,47
11,3430,Note_on_C,10,39,0
11,3430,Note_on_C,10,43,47
11,3497,Note_on_C,10,43,0
11,3497,Note_on_C,10,39,47
11,3564,Note_on_C,10,39,0
11,3564,Note_on_C,10,39,47
11,3631,Note_on_C,10,39,0
11,3631,Note_on_C,10,43,47
11,3698,Note_on_C,10,43,0
11,3698,Note_on_C,10,39,47
11,3765,Note_on_C,10,39,0
11,3765,Note_on_C,10,39,47
11,3832,Note_on_C,10,39,0
11,3832,Note_on_C,10,43,47
11,3899,Note_on_C,10,43,0
11,3899,Note_on_C,10,39,47
11,3966,Note_on_C,10,39,0
11,3966,Note_on_C,10,39,47
11,4033,Note_on_C,10,39,0
11,4033,Note_on_C,10,42,47
11,4100,Note_on_C,10,42,0
11,4100,Note_on_C,10,39,47
11,4167,Note_on_C,10,39,0
11,4167,Note_on_C,10,39,47
11,4234,Note_on_C,10,39,0
11,4234,Note_on_C,10,42,47
11,4301,Note_on_C,10,42,0
11,4301,Note_on_C,10,39,47
11,4368,Note_on_C,10,39,0
11,4368,Note_on_C,10,39,47
11,4435,Note_on_C,10,39,0
11,4435,Note_on_C,10,42,47
11,4502,Note_on_C,10,42,0
11,4502,Note_on_C,10,39,47
11,4569,Note_on_C,10,39,0
11,4569,Note_on_C,10,39,47
11,4636,Note_on_C,10,39,0
11,4636,Note_on_C,10,42,47
11,4703,Note_on_C,10,42,0
11,4703,Note_on_C,10,39,47
11,4770,Note_on_C,10,39,0
11,4770,Note_on_C,10,39,47
11,4837,Note_on_C,10,39,0
11,4837,Note_on_C,10,41,47
11,4904,Note_on_C,10,41,0
11,4904,Note_on_C,10,39,47
11,4971,Note_on_C,10,39,0
11,4971,Note_on_C,10,39,47
11,5038,Note_on_C,10,39,0
11,5038,Note_on_C,10,41,47
11,5105,Note_on_C,10,41,0
11,5105,Note_on_C,10,39,47
11,5172,Note_on_C,10,39,0
11,5172,Note_on_C,10,39,47
11,5239,Note_on_C,10,39,0
11,5239,Note_on_C,10,41,47
11,5306,Note_on_C,10,41,0
11,5306,Note_on_C,10,39,47
11,5373,Note_on_C,10,39,0
11,5373,Note_on_C,10,39,47
11,5440,Note_on_C,10,39,0
11,5440,Note_on_C,10,40,47
11,5507,Note_on_C,10,40,0
11,5507,Note_on_C,10,39,47
11,5574,Note_on_C,10,39,0
11,5574,Note_on_C,10,38,47
11,5641,Note_on_C,10,38,0
11,5641,Note_on_C,10,40,47
11,5708,Note_on_C,10,40,0
11,5708,Note_on_C,10,39,47
11,5775,Note_on_C,10,39,0
11,5775,Note_on_C,10,38,47
11,5842,Note_on_C,10,38,0
11,5842,Note_on_C,10,40,47
11,5909,Note_on_C,10,40,0
11,5909,Note_on_C,10,38,47
11,5976,Note_on_C,10,38,0
11,5976,Note_on_C,10,38,47
11,6043,Note_on_C,10,38,0
11,6043,Note_on_C,10,40,47
11,6110,Note_on_C,10,40,0
11,6110,Note_on_C,10,38,47
11,6177,Note_on_C,10,38,0
11,6177,Note_on_C,10,38,47
11,6244,Note_on_C,10,38,0
11,6244,Note_on_C,10,39,47
11,6311,Note_on_C,10,39,0
11,6311,Note_on_C,10,38,47
11,6378,Note_on_C,10,38,0
11,6378,Note_on_C,10,38,47
11,6445,Note_on_C,10,38,0
11,6445,Note_on_C,10,39,47
11,6512,Note_on_C,10,39,0
11,6512,Note_on_C,10,38,47
11,6579,Note_on_C,10,38,0
11,6579,Note_on_C,10,37,47
11,6646,Note_on_C,10,37,0
11,6646,Note_on_C,10,39,47
11,6713,Note_on_C,10,39,0
11,6713,Note_on_C,10,38,47
11,6780,Note_on_C,10,38,0
11,6780,Note_on_C,10,37,47
11,6847,Note_on_C,10,37,0
11,6847,Note_on_C,10,38,47
11,6914,Note_on_C,10,38,0
11,6914,Note_on_C,10,37,47
11,6981,Note_on_C,10,37,0
11,6981,Note_on_C,10,37,47
11,7048,Note_on_C,10,37,0
11,7048,Note_on_C,10,38,47
11,7115,Note_on_C,10,38,0
11,7115,Note_on_C,10,37,47
11,7182,Note_on_C,10,37,0
11,7182,Note_on_C,10,37,47
11,7249,Note_on_C,10,37,0
11,7249,Note_on_C,10,37,47
11,7316,Note_on_C,10,37,0
11,7316,Note_on_C,10,37,47
11,7383,Note_on_C,10,37,0
11,7383,Note_on_C,10,36,47
11,7450,Note_on_C,10,36,0
11,7450,Note_on_C,10,37,47
11,7517,Note_on_C,10,37,0
11,7517,Note_on_C,10,36,47
11,7584,Note_on_C,10,36,0
11,7584,Note_on_C,10,36,47
11,7651,Note_on_C,10,36,0
11,7651,Note_on_C,10,37,47
11,7718,Note_on_C,10,37,0
11,7718,Note_on_C,10,36,47
11,7785,Note_on_C,10,36,0
11,7785,Note_on_C,10,36,47
11,7852,Note_on_C,10,36,0
11,7852,Note_on_C,10,36,47
11,7919,Note_on_C,10,36,0
11,7919,Note_on_C,10,36,47
11,7986,Note_on_C,10,36,0
11,7986,Note_on_C,10,35,47
11,8053,Note_on_C,10,35,0
11,8053,Note_on_C,10,36,47
11,8120,Note_on_C,10,36,0
11,8120,Note_on_C,10,35,47
11,8187,Note_on_C,10,35,0
11,8187,Note_on_C,10,35,47
11,8254,Note_on_C,10,35,0
11,8254,Note_on_C,10,35,47
11,8321,Note_on_C,10,35,0
11,8321,Note_on_C,10,35,47
11,8388,Note_on_C,10,35,0
11,8388,Note_on_C,10,34,47
11,8455,Note_on_C,10,34,0
11,8455,Note_on_C,10,35,47
11,8522,Note_on_C,10,35,0
11,8522,Note_on_C,10,34,47
11,8589,Note_on_C,10,34,0
11,8589,Note_on_C,10,34,47
11,8656,Note_on_C,10,34,0
11,8656,Note_on_C,10,34,47
11,8723,Note_on_C,10,34,0
11,8723,Note_on_C,10,34,47
11,8790,Note_on_C,10,34,0
11,8790,Note_on_C,10,33,47
11,8857,Note_on_C,10,33,0
11,8857,Note_on_C,10,34,47
11,8924,Note_on_C,10,34,0
11,8924,Note_on_C,10,33,47
11,8991,Note_on_C,10,33,0
11,8991,Note_on_C,10,33,47
11,9058,Note_on_C,10,33,0
11,9058,Note_on_C,10,33,47
11,9125,Note_on_C,10,33,0
11,9125,Note_on_C,10,33,47
11,9192,Note_on_C,10,33,0
11,9192,Note_on_C,10,32,47
11,9259,Note_on_C,10,32,0
11,9259,Note_on_C,10,32,47
11,9326,Note_on_C,10,32,0
11,9326,Note_on_C,10,32,47
11,9393,Note_on_C,10,32,0
11,9393,Note_on_C,10,32,47
11,9460,Note_on_C,10,32,0
11,9460,Note_on_C,10,32,47
11,9527,Note_on_C,10,32,0
11,9527,Note_on_C,10,31,47
11,9594,Note_on_C,10,31,0
11,9594,Note_on_C,10,31,47
11,9661,Note_on_C,10,31,0
11,9661,Note_on_C,10,31,47
11,9728,Note_on_C,10,31,0
11,9728,Note_on_C,10,31,47
11,9795,Note_on_C,10,31,0
11,9795,Note_on_C,10,30,47
11,9862,Note_on_C,10,30,0
11,9862,Note_on_C,10,30,47
11,9929,Note_on_C,10,30,0
11,9929,Note_on_C,10,30,47
11,9996,Note_on_C,10,30,0
11,9996,Note_on_C,10,29,47
11,10063,Note_on_C,10,29,0
11,10063,Note_on_C,10,29,47
11,10130,Note_on_C,10,29,0
11,10130,Note_on_C,10,29,47
11,10197,Note_on_C,10,29,0
11,10197,Note_on_C,10,29,47
11,10264,Note_on_C,10,29,0
11,10264,Note_on_C,10,29,47
11,10331,Note_on_C,10,29,0
11,10331,Note_on_C,10,28,47
11,10398,Note_on_C,10,28,0
11,10398,Note_on_C,10,28,47
11,10465,Note_on_C,10,28,0
11,10465,Note_on_C,10,28,47
11,10532,Note_on_C,10,28,0
11,10532,Note_on_C,10,27,47
11,10599,Note_on_C,10,27,0
11,10599,Note_on_C,10,27,47
11,10666,Note_on_C,10,27,0
11,10666,Note_on_C,10,27,47
11,10733,Note_on_C,10,27,0
11,10733,Note_on_C,10,26,47
11,10800,Note_on_C,10,26,0
11,10800,Note_on_C,10,26,47
11,10867,Note_on_C,10,26,0
11,10867,Note_on_C,10,26,47
11,10934,Note_on_C,10,26,0
11,10934,Note_on_C,10,25,47
11,11001,Note_on_C,10,25,0
11,11001,Note_on_C,10,25,47
11,11068,Note_on_C,10,25,0
11,11068,Note_on_C,10,24,47
11,11135,Note_on_C,10,24,0
11,11135,Note_on_C,10,24,47
11,11202,Note_on_C,10,24,0
11,11202,Note_on_C,10,23,47
11,11269,Note_on_C,10,23,0
11,11269,Note_on_C,10,23,47
11,11336,Note_on_C,10,23,0
11,11336,Note_on_C,10,23,47
11,11403,Note_on_C,10,23,0
11,11403,Note_on_C,10,22,47
11,11470,Note_on_C,10,22,0
11,11470,Note_on_C,10,22,47
11,11537,Note_on_C,10,22,0
11,11537,Note_on_C,10,21,47
11,11604,Note_on_C,10,21,0
11,11604,Note_on_C,10,21,47
11,11671,Note_on_C,10,21,0
11,11671,Note_on_C,10,21,47
11,11738,Note_on_C,10,21,0
11,11738,Note_on_C,10,20,47
11,11805,Note_on_C,10,20,0
11,11805,Note_on_C,10,20,47
11,11872,Note_on_C,10,20,0
11,11872,Note_on_C,10,19,47
11,11939,Note_on_C,10,19,0
11,11939,Note_on_C,10,19,47
11,12006,Note_on_C,10,19,0
11,12006,Note_on_C,10,18,47
11,12073,Note_on_C,10,18,0
11,12073,Note_on_C,10,18,47
11,12140,Note_on_C,10,18,0
11,12140,Note_on_C,10,17,47
11,12207,Note_on_C,10,17,0
11,12207,Note_on_C,10,16,47
11,12274,Note_on_C,10,16,0
11,12274,Note_on_C,10,16,47
11,12341,Note_on_C,10,16,0
11,12341,Note_on_C,10,15,47
11,12408,Note_on_C,10,15,0
11,12408,Note_on_C,10,15,47
11,12475,Note_on_C,10,15,0
11,12475,Note_on_C,10,14,47
11,12542,Note_on_C,10,14,0
11,12542,Note_on_C,10,14,47
11,12609,Note_on_C,10,14,0
11,12609,Note_on_C,10,13,47
11,12676,Note_on_C,10,13,0
11,12676,Note_on_C,10,12,47
11,12743,Note_on_C,10,12,0
11,12743,Note_on_C,10,12,47
11,12810,Note_on_C,10,12,0
11,12810,Note_on_C,10,11,47
11,12877,Note_on_C,10,11,0
11,12877,Note_on_C,10,10,47
11,12944,Note_on_C,10,10,0
11,12944,Note_on_C,10,10,47
11,13011,Note_on_C,10,10,0
11,13011,Note_on_C,10,9,47
11,13078,Note_on_C,10,9,0
11,13078,Note_on_C,10,8,47
11,13145,Note_on_C,10,8,0
11,13145,Note_on_C,10,7,47
11,13212,Note_on_C,10,7,0
11,13212,Note_on_C,10,7,47
11,13279,Note_on_C,10,7,0
11,13279,Note_on_C,10,6,47
11,13346,Note_on_C,10,6,0
11,13346,Note_on_C,10,5,47
11,13413,Note_on_C,10,5,0
11,13413,Note_on_C,10,4,47
11,13480,Note_on_C,10,4,0
11,13480,Note_on_C,10,4,47
11,13547,Note_on_C,10,4,0
11,13547,Note_on_C,10,3,47
11,13614,Note_on_C,10,3,0
11,13614,Note_on_C,10,2,47
11,13681,Note_on_C,10,2,0
11,13681,Note_on_C,10,1,47
11,13748,Note_on_C,10,1,0
11,13748,Note_on_C,10,0,47
11,13815,Note_on_C,10,0,0
11,13815,Note_on_C,10, 1,47
11,13882,Note_on_C,10, 1,0
11,13882,Note_on_C,10, 2,47
11,13949,Note_on_C,10, 2,0
11,13949,Note_on_C,10, 3,47
11,14016,Note_on_C,10, 3,0
11,14016,Note_on_C,10, 4,47
11,14083,Note_on_C,10, 4,0
11,14083,Note_on_C,10, 5,47
11,14150,Note_on_C,10, 5,0
11,14150,Note_on_C,10, 6,47
11,14217,Note_on_C,10, 6,0
11,14217,Note_on_C,10, 7,47
11,14284,Note_on_C,10, 7,0
11,14284,Note_on_C,10, 8,47
11,14351,Note_on_C,10, 8,0
11,14351,Note_on_C,10, 8,47
11,14418,Note_on_C,10, 8,0
11,14418,Note_on_C,10, 9,47
11,14485,Note_on_C,10, 9,0
11,14485,Note_on_C,10, 9,47
11,14552,Note_on_C,10, 9,0
11,14552,Note_on_C,10, 10,47
11,14619,Note_on_C,10, 10,0
11,14619,Note_on_C,10, 10,47
11,14686,Note_on_C,10, 10,0
11,14686,Note_on_C,10, 10,47
11,14753,Note_on_C,10, 10,0
11,14753,Note_on_C,10, 10,47
11,14820,Note_on_C,10, 10,0
11,14820,Note_on_C,10, 10,47
11,14887,Note_on_C,10, 10,0
11,14887,Note_on_C,10, 11,47
11,14954,Note_on_C,10, 11,0
11,14954,Note_on_C,10, 11,47
11,15021,Note_on_C,10, 11,0
11,15021,Note_on_C,10, 11,47
11,15088,Note_on_C,10, 11,0
11,15088,Note_on_C,10, 11,47
11,15155,Note_on_C,10, 11,0
11,15155,Note_on_C,10, 11,47
11,15222,Note_on_C,10, 11,0
11,15222,Note_on_C,10, 11,47
11,15289,Note_on_C,10, 11,0
11,15289,Note_on_C,10, 11,47
11,15356,Note_on_C,10, 11,0
11,15356,Note_on_C,10, 11,47
11,15423,Note_on_C,10, 11,0
11,15423,Note_on_C,10, 11,47
11,15490,Note_on_C,10, 11,0
11,15490,Note_on_C,10, 11,47
11,15557,Note_on_C,10, 11,0
11,15557,Note_on_C,10, 11,47
11,15624,Note_on_C,10, 11,0
11,15624,Note_on_C,10, 11,47
11,15691,Note_on_C,10, 11,0
11,15691,Note_on_C,10, 11,47
11,15758,Note_on_C,10, 11,0
11,15758,Note_on_C,10, 11,47
11,15825,Note_on_C,10, 11,0
11,15825,Note_on_C,10, 11,47
11,15892,Note_on_C,10, 11,0
11,15892,Note_on_C,10, 11,47
11,15959,Note_on_C,10, 11,0
11,15959,Note_on_C,10, 11,47
11,16026,Note_on_C,10, 11,0
11,16026,Note_on_C,10, 11,47
11,16093,Note_on_C,10, 11,0
11,16093,Note_on_C,10, 11,47
11,16160,Note_on_C,10, 11,0
11,16160,Note_on_C,10, 11,47
11,16227,Note_on_C,10, 11,0
11,16227,Note_on_C,10, 11,47
11,16294,Note_on_C,10, 11,0
11,16294,Note_on_C,10, 11,47
11,16361,Note_on_C,10, 11,0
11,16361,Note_on_C,10, 11,47
11,16428,Note_on_C,10, 11,0
11,16428,Note_on_C,10, 11,47
11,16495,Note_on_C,10, 11,0
11,16495,Note_on_C,10, 11,47
11,16562,Note_on_C,10, 11,0
11,16562,Note_on_C,10, 11,47
11,16629,Note_on_C,10, 11,0
11,16629,Note_on_C,10, 11,47
11,16696,Note_on_C,10, 11,0
11,16696,Note_on_C,10, 11,47
11,16763,Note_on_C,10, 11,0
11,16763,Note_on_C,10, 11,47
11,16830,Note_on_C,10, 11,0
11,16830,Note_on_C,10, 11,47
11,16897,Note_on_C,10, 11,0
11,16897,Note_on_C,10, 11,47
11,16964,Note_on_C,10, 11,0
11,16964,Note_on_C,10, 11,47
11,17031,Note_on_C,10, 11,0
11,17031,Note_on_C,10, 11,47
11,17098,Note_on_C,10, 11,0
11,17098,Note_on_C,10, 11,47
11,17165,Note_on_C,10, 11,0
11,17165,Note_on_C,10, 11,47
11,17232,Note_on_C,10, 11,0
11,17232,Note_on_C,10, 11,47
11,17299,Note_on_C,10, 11,0
11,17299,Note_on_C,10, 11,47
11,17366,Note_on_C,10, 11,0
11,17366,Note_on_C,10, 11,47
11,17433,Note_on_C,10, 11,0
11,17433,Note_on_C,10, 11,47
11,17500,Note_on_C,10, 11,0
11,17500,Note_on_C,10, 11,47
11,17567,Note_on_C,10, 11,0
11,17567,Note_on_C,10, 11,47
11,17634,Note_on_C,10, 11,0
11,17634,Note_on_C,10, 11,47
11,17701,Note_on_C,10, 11,0
11,17701,Note_on_C,10, 11,47
11,17768,Note_on_C,10, 11,0
11,17768,Note_on_C,10, 11,47
11,17835,Note_on_C,10, 11,0
11,17835,Note_on_C,10, 11,47
11,17902,Note_on_C,10, 11,0
11,17902,Note_on_C,10, 11,47
11,17969,Note_on_C,10, 11,0
11,17969,Note_on_C,10, 11,47
11,18036,Note_on_C,10, 11,0
11,18036,Note_on_C,10, 11,47
11,18103,Note_on_C,10, 11,0
11,18103,Note_on_C,10, 11,47
11,18170,Note_on_C,10, 11,0
11,18170,Note_on_C,10, 11,47
11,18237,Note_on_C,10, 11,0
11,18237,Note_on_C,10, 11,47
11,18304,Note_on_C,10, 11,0
11,18304,Note_on_C,10, 11,47
11,18371,Note_on_C,10, 11,0
11,18371,Note_on_C,10, 11,47
11,18438,Note_on_C,10, 11,0
11,18438,Note_on_C,10, 11,47
11,18505,Note_on_C,10, 11,0
11,18505,Note_on_C,10, 11,47
11,18572,Note_on_C,10, 11,0
11,18572,Note_on_C,10, 11,47
11,18639,Note_on_C,10, 11,0
11,18639,Note_on_C,10, 11,47
11,18706,Note_on_C,10, 11,0
11,18706,Note_on_C,10, 11,47
11,18773,Note_on_C,10, 11,0
11,18773,Note_on_C,10, 11,47
11,18840,Note_on_C,10, 11,0
11,18840,Note_on_C,10, 11,47
11,18907,Note_on_C,10, 11,0
11,18907,Note_on_C,10, 11,47
11,18974,Note_on_C,10, 11,0
11,18974,Note_on_C,10, 11,47
11,19041,Note_on_C,10, 11,0
11,19041,Note_on_C,10, 11,47
11,19108,Note_on_C,10, 11,0
11,19108,Note_on_C,10, 11,47
11,19175,Note_on_C,10, 11,0
11,19175,Note_on_C,10, 11,47
11,19242,Note_on_C,10, 11,0
11,19242,Note_on_C,10, 11,47
11,19309,Note_on_C,10, 11,0
11,19309,Note_on_C,10, 11,47
11,19376,Note_on_C,10, 11,0
11,19376,Note_on_C,10, 11,47
11,19443,Note_on_C,10, 11,0
11,19443,Note_on_C,10, 11,47
11,19510,Note_on_C,10, 11,0
11,19510,Note_on_C,10, 11,47
11,19577,Note_on_C,10, 11,0
11,19577,Note_on_C,10, 11,47
11,19644,Note_on_C,10, 11,0
11,19644,Note_on_C,10, 11,47
11,19711,Note_on_C,10, 11,0
11,19711,Note_on_C,10, 11,47
11,19778,Note_on_C,10, 11,0
11,19778,Note_on_C,10, 11,47
11,19845,Note_on_C,10, 11,0
11,19845,Note_on_C,10, 11,47
11,19912,Note_on_C,10, 11,0
11,19912,Note_on_C,10, 11,47
11,19979,Note_on_C,10, 11,0
11,19979,Note_on_C,10, 11,47
11,20046,Note_on_C,10, 11,0
11,20046,Note_on_C,10, 11,47
11,20113,Note_on_C,10, 11,0
11,20113,Note_on_C,10, 11,47
11,20180,Note_on_C,10, 11,0
11,20180,Note_on_C,10, 11,47
11,20247,Note_on_C,10, 11,0
11,20247,Note_on_C,10, 11,47
11,20314,Note_on_C,10, 11,0
11,20314,Note_on_C,10, 11,47
11,20381,Note_on_C,10, 11,0
11,20381,Note_on_C,10, 11,47
11,20448,Note_on_C,10, 11,0
11,20448,Note_on_C,10, 11,47
11,20515,Note_on_C,10, 11,0
11,20515,Note_on_C,10, 11,47
11,20582,Note_on_C,10, 11,0
11,20582,Note_on_C,10, 11,47
11,20649,Note_on_C,10, 11,0
11,20649,Note_on_C,10, 11,47
11,20716,Note_on_C,10, 11,0
11,20716,Note_on_C,10, 11,47
11,20783,Note_on_C,10, 11,0
11,20783,Note_on_C,10, 11,47
11,20850,Note_on_C,10, 11,0
11,20850,Note_on_C,10, 11,47
11,20917,Note_on_C,10, 11,0
11,20917,Note_on_C,10, 11,47
11,20984,Note_on_C,10, 11,0
11,20984,Note_on_C,10, 11,47
11,21051,Note_on_C,10, 11,0
11,21051,Note_on_C,10, 11,47
11,21118,Note_on_C,10, 11,0
11,21118,Note_on_C,10, 11,47
11,21185,Note_on_C,10, 11,0
11,21185,Note_on_C,10, 11,47
11,21252,Note_on_C,10, 11,0
11,21252,Note_on_C,10, 11,47
11,21319,Note_on_C,10, 11,0
11,21319,Note_on_C,10, 11,47
11,21386,Note_on_C,10, 11,0
11,21386,Note_on_C,10, 11,47
11,21453,Note_on_C,10, 11,0
11,21453,Note_on_C,10, 11,47
11,21520,Note_on_C,10, 11,0
11,21520,Note_on_C,10, 11,47
11,21587,Note_on_C,10, 11,0
11,21587,Note_on_C,10, 11,47
11,21654,Note_on_C,10, 11,0
11,21654,Note_on_C,10, 11,47
11,21721,Note_on_C,10, 11,0
11,21721,Note_on_C,10, 11,47
11,21788,Note_on_C,10, 11,0
11,21788,Note_on_C,10, 11,47
11,21855,Note_on_C,10, 11,0
11,21855,Note_on_C,10, 11,47
11,21922,Note_on_C,10, 11,0
11,21922,Note_on_C,10, 11,47
11,21989,Note_on_C,10, 11,0
11,21989,Note_on_C,10, 11,47
11,22056,Note_on_C,10, 11,0
11,22056,Note_on_C,10, 11,47
11,22123,Note_on_C,10, 11,0
11,22123,Note_on_C,10, 11,47
11,22190,Note_on_C,10, 11,0
11,22190,Note_on_C,10, 11,47
11,22257,Note_on_C,10, 11,0
11,22257,Note_on_C,10, 11,47
11,22324,Note_on_C,10, 11,0
11,22324,Note_on_C,10, 11,47
11,22391,Note_on_C,10, 11,0
11,22391,Note_on_C,10, 11,47
11,22458,Note_on_C,10, 11,0
11,22458,Note_on_C,10, 11,47
11,22525,Note_on_C,10, 11,0
11,22525,Note_on_C,10, 11,47
11,22592,Note_on_C,10, 11,0
11,22592,Note_on_C,10, 11,47
11,22659,Note_on_C,10, 11,0
11,22659,Note_on_C,10, 11,47
11,22726,Note_on_C,10, 11,0
11,22726,Note_on_C,10, 11,47
11,22793,Note_on_C,10, 11,0
11,22793,Note_on_C,10, 11,47
11,22860,Note_on_C,10, 11,0
11,22860,Note_on_C,10, 11,47
11,22927,Note_on_C,10, 11,0
11,22927,Note_on_C,10, 11,47
11,22994,Note_on_C,10, 11,0
11,22994,Note_on_C,10, 11,47
11,23061,Note_on_C,10, 11,0
11,23061,Note_on_C,10, 11,47
11,23128,Note_on_C,10, 11,0
11,23128,Note_on_C,10, 11,47
11,23195,Note_on_C,10, 11,0
11,23195,Note_on_C,10, 11,47
11,23262,Note_on_C,10, 11,0
11,23262,Note_on_C,10, 11,47
11,23329,Note_on_C,10, 11,0
11,23329,Note_on_C,10, 11,47
11,23396,Note_on_C,10, 11,0
11,23396,Note_on_C,10, 11,47
11,23463,Note_on_C,10, 11,0
11,23463,Note_on_C,10, 11,47
11,23530,Note_on_C,10, 11,0
11,23530,Note_on_C,10, 11,47
11,23597,Note_on_C,10, 11,0
11,23597,Note_on_C,10, 11,47
11,23664,Note_on_C,10, 11,0
11,23664,Note_on_C,10, 11,47
11,23731,Note_on_C,10, 11,0
11,23731,Note_on_C,10, 11,47
11,23798,Note_on_C,10, 11,0
11,23798,Note_on_C,10, 11,47
11,23865,Note_on_C,10, 11,0
11,23865,Note_on_C,10, 11,47
11,23932,Note_on_C,10, 11,0
11,23932,Note_on_C,10, 11,47
11,23999,Note_on_C,10, 11,0
11,23999,Note_on_C,10, 11,47
11,24066,Note_on_C,10, 11,0
11,24066,Note_on_C,10, 11,47
11,24133,Note_on_C,10, 11,0
11,24133,Note_on_C,10, 11,47
11,24200,Note_on_C,10, 11,0
11,24200,Note_on_C,10, 11,47
11,24267,Note_on_C,10, 11,0
11,24267,Note_on_C,10, 11,47
11,24334,Note_on_C,10, 11,0
11,24334,Note_on_C,10, 11,47
11,24401,Note_on_C,10, 11,0
11,24401,Note_on_C,10, 11,47
11,24468,Note_on_C,10, 11,0
11,24468,Note_on_C,10, 11,47
11,24535,Note_on_C,10, 11,0
11,24535,Note_on_C,10, 11,47
11,24602,Note_on_C,10, 11,0
11,24602,Note_on_C,10, 11,47
11,24669,Note_on_C,10, 11,0
11,24669,Note_on_C,10, 11,47
11,24736,Note_on_C,10, 11,0
11,24736,Note_on_C,10, 11,47
11,24803,Note_on_C,10, 11,0
11,24803,Note_on_C,10, 11,47
11,24870,Note_on_C,10, 11,0
11,24870,Note_on_C,10, 11,47
11,24937,Note_on_C,10, 11,0
11,24937,Note_on_C,10, 11,47
11,25004,Note_on_C,10, 11,0
11,25004,Note_on_C,10, 11,47
11,25071,Note_on_C,10, 11,0
11,25071,Note_on_C,10, 11,47
11,25138,Note_on_C,10, 11,0
11,25138,Note_on_C,10, 11,47
11,25205,Note_on_C,10, 11,0
11,25205,Note_on_C,10, 11,47
11,25272,Note_on_C,10, 11,0
11,25272,Note_on_C,10, 11,47
11,25339,Note_on_C,10, 11,0
11,25339,Note_on_C,10, 11,47
11,25406,Note_on_C,10, 11,0
11,25406,Note_on_C,10, 11,47
11,25473,Note_on_C,10, 11,0
11,25473,Note_on_C,10, 11,47
11,25540,Note_on_C,10, 11,0
11,25540,Note_on_C,10, 11,47
11,25607,Note_on_C,10, 11,0
11,25607,Note_on_C,10, 11,47
11,25674,Note_on_C,10, 11,0
11,25674,Note_on_C,10, 11,47
11,25741,Note_on_C,10, 11,0
11,25741,Note_on_C,10, 11,47
11,25808,Note_on_C,10, 11,0
11,25808,Note_on_C,10, 11,47
11,25875,Note_on_C,10, 11,0
11,25875,Note_on_C,10, 11,47
11,25942,Note_on_C,10, 11,0
11,25942,Note_on_C,10, 11,47
11,26009,Note_on_C,10, 11,0
11,26009,Note_on_C,10, 11,47
11,26076,Note_on_C,10, 11,0
11,26076,Note_on_C,10, 11,47
11,26143,Note_on_C,10, 11,0
11,26143,Note_on_C,10, 11,47
11,26210,Note_on_C,10, 11,0
11,26210,Note_on_C,10, 11,47
11,26277,Note_on_C,10, 11,0
11,26277,Note_on_C,10, 11,47
11,26344,Note_on_C,10, 11,0
11,26344,Note_on_C,10, 11,47
11,26411,Note_on_C,10, 11,0
11,26411,Note_on_C,10, 11,47
11,26478,Note_on_C,10, 11,0
11,26478,Note_on_C,10, 11,47
11,26545,Note_on_C,10, 11,0
11,26545,Note_on_C,10, 11,47
11,26612,Note_on_C,10, 11,0
11,26612,Note_on_C,10, 11,47
11,26679,Note_on_C,10, 11,0
11,26679,Note_on_C,10, 11,47
11,26746,Note_on_C,10, 11,0
11,26746,Note_on_C,10, 11,47
11,26813,Note_on_C,10, 11,0
11,26813,Note_on_C,10, 11,47
11,26880,Note_on_C,10, 11,0
11,26880,Note_on_C,10, 11,47
11,26947,Note_on_C,10, 11,0
11,26947,Note_on_C,10, 11,47
11,27014,Note_on_C,10, 11,0
11,27014,Note_on_C,10, 11,47
11,27081,Note_on_C,10, 11,0
11,27081,Note_on_C,10, 11,47
11,27148,Note_on_C,10, 11,0
11,27148,Note_on_C,10, 11,47
11,27215,Note_on_C,10, 11,0
11,27215,Note_on_C,10, 11,47
11,27282,Note_on_C,10, 11,0
11,27282,Note_on_C,10, 11,47
11,27349,Note_on_C,10, 11,0
11,27349,Note_on_C,10, 11,47
11,27416,Note_on_C,10, 11,0
11,27416,Note_on_C,10, 11,47
11,27483,Note_on_C,10, 11,0
11,27483,Note_on_C,10, 11,47
11,27550,Note_on_C,10, 11,0
11,27550,Note_on_C,10, 11,47
11,27617,Note_on_C,10, 11,0
11,27617,Note_on_C,10, 11,47
11,27684,Note_on_C,10, 11,0
11,27684,Note_on_C,10, 11,47
11,27751,Note_on_C,10, 11,0
11,27751,Note_on_C,10, 11,47
11,27818,Note_on_C,10, 11,0
11,27818,Note_on_C,10, 11,47
11,27885,Note_on_C,10, 11,0
11,27885,Note_on_C,10, 11,47
11,27952,Note_on_C,10, 11,0
11,27952,Note_on_C,10, 11,47
11,28019,Note_on_C,10, 11,0
11,28019,Note_on_C,10, 11,47
11,28086,Note_on_C,10, 11,0
11,28086,Note_on_C,10, 11,47
11,28153,Note_on_C,10, 11,0
11,28153,Note_on_C,10, 11,47
11,28220,Note_on_C,10, 11,0
11,28220,Note_on_C,10, 11,47
11,28287,Note_on_C,10, 11,0
11,28287,Note_on_C,10, 11,47
11,28354,Note_on_C,10, 11,0
11,28354,Note_on_C,10, 11,47
11,28421,Note_on_C,10, 11,0
11,28421,Note_on_C,10, 11,47
11,28488,Note_on_C,10, 11,0
11,28488,Note_on_C,10, 11,47
11,28555,Note_on_C,10, 11,0
11,28555,Note_on_C,10, 11,47
11,28622,Note_on_C,10, 11,0
11,28622,Note_on_C,10, 11,47
11,28689,Note_on_C,10, 11,0
11,28689,Note_on_C,10, 11,47
11,28756,Note_on_C,10, 11,0
11,28756,Note_on_C,10, 11,47
11,28823,Note_on_C,10, 11,0
11,28823,Note_on_C,10, 11,47
11,28890,Note_on_C,10, 11,0
11,28890,Note_on_C,10, 11,47
11,28957,Note_on_C,10, 11,0
11,28957,Note_on_C,10, 11,47
11,29024,Note_on_C,10, 11,0
11,29024,Note_on_C,10, 11,47
11,29091,Note_on_C,10, 11,0
11,29091,Note_on_C,10, 11,47
11,29158,Note_on_C,10, 11,0
11,29158,Note_on_C,10, 11,47
11,29225,Note_on_C,10, 11,0
11,29225,Note_on_C,10, 11,47
11,29292,Note_on_C,10, 11,0
11,29292,Note_on_C,10, 11,47
11,29359,Note_on_C,10, 11,0
11,29359,Note_on_C,10, 11,47
11,29426,Note_on_C,10, 11,0
11,29426,Note_on_C,10, 11,47
11,29493,Note_on_C,10, 11,0
11,29493,Note_on_C,10, 11,47
11,29560,Note_on_C,10, 11,0
11,29560,Note_on_C,10, 11,47
11,29627,Note_on_C,10, 11,0
11,29627,Note_on_C,10, 11,47
11,29694,Note_on_C,10, 11,0
11,29694,Note_on_C,10, 11,47
11,29761,Note_on_C,10, 11,0
11,29761,Note_on_C,10, 11,47
11,29828,Note_on_C,10, 11,0
11,29828,Note_on_C,10, 11,47
11,29895,Note_on_C,10, 11,0
11,29895,Note_on_C,10, 11,47
11,29962,Note_on_C,10, 11,0
11,29962,Note_on_C,10, 11,47
11,30029,Note_on_C,10, 11,0
11,30029,Note_on_C,10, 11,47
11,30096,Note_on_C,10, 11,0
11,30096,Note_on_C,10, 11,47
11,30163,Note_on_C,10, 11,0
11,30163,Note_on_C,10, 11,47
11,30230,Note_on_C,10, 11,0
11,30230,Note_on_C,10, 11,47
11,30297,Note_on_C,10, 11,0
11,30297,Note_on_C,10, 11,47
11,30364,Note_on_C,10, 11,0
11,30364,Note_on_C,10, 11,47
11,30431,Note_on_C,10, 11,0
11,30431,Note_on_C,10, 11,47
11,30498,Note_on_C,10, 11,0
11,30498,Note_on_C,10, 11,47
11,30565,Note_on_C,10, 11,0
11,30565,Note_on_C,10, 11,47
11,30632,Note_on_C,10, 11,0
11,30632,Note_on_C,10, 11,47
11,30699,Note_on_C,10, 11,0
11,30699,Note_on_C,10, 11,47
11,30766,Note_on_C,10, 11,0
11,30766,Note_on_C,10, 11,47
11,30833,Note_on_C,10, 11,0
11,30833,Note_on_C,10, 11,47
11,30900,Note_on_C,10, 11,0
11,30900,Note_on_C,10, 11,47
11,30967,Note_on_C,10, 11,0
11,30967,Note_on_C,10, 11,47
11,31034,Note_on_C,10, 11,0
11,31034,Note_on_C,10, 11,47
11,31101,Note_on_C,10, 11,0
11,31101,Note_on_C,10, 11,47
11,31168,Note_on_C,10, 11,0
11,31168,Note_on_C,10, 11,47
11,31235,Note_on_C,10, 11,0
11,31235,Note_on_C,10, 11,47
11,31302,Note_on_C,10, 11,0
11,31302,Note_on_C,10, 11,47
11,31369,Note_on_C,10, 11,0
11,31369,Note_on_C,10, 11,47
11,31436,Note_on_C,10, 11,0
11,31436,Note_on_C,10, 11,47
11,31503,Note_on_C,10, 11,0
11,31503,Note_on_C,10, 11,47
11,31570,Note_on_C,10, 11,0
11,31570,Note_on_C,10, 11,47
11,31637,Note_on_C,10, 11,0
11,31637,Note_on_C,10, 11,47
11,31704,Note_on_C,10, 11,0
11,31704,Note_on_C,10, 11,47
11,31771,Note_on_C,10, 11,0
11,31771,Note_on_C,10, 11,47
11,31838,Note_on_C,10, 11,0
11,31838,Note_on_C,10, 11,47
11,31905,Note_on_C,10, 11,0
11,31905,Note_on_C,10, 11,47
11,31972,Note_on_C,10, 11,0
11,31972,Note_on_C,10, 11,47
11,32039,Note_on_C,10, 11,0
11,32039,Note_on_C,10, 11,47
11,32106,Note_on_C,10, 11,0
11,32106,Note_on_C,10, 11,47
11,32173,Note_on_C,10, 11,0
11,32173,Note_on_C,10, 11,47
11,32240,Note_on_C,10, 11,0
11,32240,Note_on_C,10, 11,47
11,32307,Note_on_C,10, 11,0
11,32307,Note_on_C,10, 11,47
11,32374,Note_on_C,10, 11,0
11,32374,Note_on_C,10, 11,47
11,32441,Note_on_C,10, 11,0
11,32441,Note_on_C,10, 11,47
11,32508,Note_on_C,10, 11,0
11,32508,Note_on_C,10, 11,47
11,32575,Note_on_C,10, 11,0
11,32575,Note_on_C,10, 11,47
11,32642,Note_on_C,10, 11,0
11,32642,Note_on_C,10, 11,47
11,32709,Note_on_C,10, 11,0
11,32709,Note_on_C,10, 11,47
11,32776,Note_on_C,10, 11,0
11,32776,Note_on_C,10, 11,47
11,32843,Note_on_C,10, 11,0
11,32843,Note_on_C,10, 11,47
11,32910,Note_on_C,10, 11,0
11,32910,Note_on_C,10, 11,47
11,32977,Note_on_C,10, 11,0
11,32977,Note_on_C,10, 11,47
11,33044,Note_on_C,10, 11,0
11,33044,Note_on_C,10, 11,47
11,33111,Note_on_C,10, 11,0
11,33111,Note_on_C,10, 11,47
11,33178,Note_on_C,10, 11,0
11,33178,Note_on_C,10, 11,47
11,33245,Note_on_C,10, 11,0
11,33245,Note_on_C,10, 11,47
11,33312,Note_on_C,10, 11,0
11,33312,Note_on_C,10, 11,47
11,33379,Note_on_C,10, 11,0
11,33379,Note_on_C,10, 11,47
11,33446,Note_on_C,10, 11,0
11,33446,Note_on_C,10, 11,47
11,33513,Note_on_C,10, 11,0
11,33513,Note_on_C,10, 11,47
11,33580,Note_on_C,10, 11,0
11,33580,Note_on_C,10, 11,47
11,33647,Note_on_C,10, 11,0
11,33647,Note_on_C,10, 11,47
11,33714,Note_on_C,10, 11,0
11,33714,Note_on_C,10, 11,47
11,33781,Note_on_C,10, 11,0
11,33781,Note_on_C,10, 11,47
11,33848,Note_on_C,10, 11,0
11,33848,Note_on_C,10, 11,47
11,33915,Note_on_C,10, 11,0
11,33915,Note_on_C,10, 11,47
11,33982,Note_on_C,10, 11,0
11,33982,Note_on_C,10, 11,47
11,34049,Note_on_C,10, 11,0
11,34049,Note_on_C,10, 11,47
11,34116,Note_on_C,10, 11,0
11,34116,Note_on_C,10, 11,47
11,34183,Note_on_C,10, 11,0
11,34183,Note_on_C,10, 11,47
11,34250,Note_on_C,10, 11,0
11,34250,Note_on_C,10, 11,47
11,34317,Note_on_C,10, 11,0
11,34317,Note_on_C,10, 11,47
11,34384,Note_on_C,10, 11,0
11,34384,Note_on_C,10, 11,47
11,34451,Note_on_C,10, 11,0
11,34451,Note_on_C,10, 11,47
11,34518,Note_on_C,10, 11,0
11,34518,Note_on_C,10, 11,47
11,34585,Note_on_C,10, 11,0
11,34585,Note_on_C,10, 11,47
11,34652,Note_on_C,10, 11,0
11,34652,Note_on_C,10, 11,47
11,34719,Note_on_C,10, 11,0
11,34719,Note_on_C,10, 11,47
11,34786,Note_on_C,10, 11,0
11,34786,Note_on_C,10, 11,47
11,34853,Note_on_C,10, 11,0
11,34853,Note_on_C,10, 11,47
11,34920,Note_on_C,10, 11,0
11,34920,Note_on_C,10, 11,47
11,34987,Note_on_C,10, 11,0
11,34987,Note_on_C,10, 11,47
11,35054,Note_on_C,10, 11,0
11,35054,Note_on_C,10, 11,47
11,35121,Note_on_C,10, 11,0
11,35121,Note_on_C,10, 11,47
11,35188,Note_on_C,10, 11,0
11,35188,Note_on_C,10, 11,47
11,35255,Note_on_C,10, 11,0
11,35255,Note_on_C,10, 11,47
11,35322,Note_on_C,10, 11,0
11,35322,Note_on_C,10, 11,47
11,35389,Note_on_C,10, 11,0
11,35389,Note_on_C,10, 11,47
11,35456,Note_on_C,10, 11,0
11,35456,Note_on_C,10, 11,47
11,35523,Note_on_C,10, 11,0
11,35523,Note_on_C,10, 11,47
11,35590,Note_on_C,10, 11,0
11,35590,Note_on_C,10, 11,47
11,35657,Note_on_C,10, 11,0
11,35657,Note_on_C,10, 11,47
11,35724,Note_on_C,10, 11,0
11,35724,Note_on_C,10, 11,47
11,35791,Note_on_C,10, 11,0
11,35791,Note_on_C,10, 11,47
11,35858,Note_on_C,10, 11,0
11,35858,Note_on_C,10, 11,47
11,35925,Note_on_C,10, 11,0
11,35925,Note_on_C,10, 11,47
11,35992,Note_on_C,10, 11,0
11,35992, End_track,10,0,0
12,0, Start_track,11,0,0
12, 0, MIDI_port, 0
12,0, Program_c,11,5,0
12,0, Control_c,11,5,100
12,0, Control_c,11,5,0
12,0, End_track,11,0,0
13,0, Start_track,12,0,0
13, 0, MIDI_port, 0
13,0, Program_c,12,5,0
13,0, Control_c,12,5,100
13,0, Control_c,12,5,0
13,0, End_track,12,0,0
14,0, Start_track,13,0,0
14, 0, MIDI_port, 0
14,0, Program_c,13,5,0
14,0, Control_c,13,5,100
14,0, Control_c,13,5,0
14,0, End_track,13,0,0
15,0, Start_track,14,0,0
15, 0, MIDI_port, 0
15,0, Program_c,14,5,0
15,0, Control_c,14,5,100
15,0, Control_c,14,5,0
15,0, End_track,14,0,0
0,0,End_of_file,0,0,0
